<?xml version="1.0" encoding="UTF-8" standalone="no"?>
<!DOCTYPE svg PUBLIC "-//W3C//DTD SVG 1.1//EN"
 "http://www.w3.org/Graphics/SVG/1.1/DTD/svg11.dtd">
<!-- Generated by graphviz version 2.40.1 (20161225.0304)
 -->
<!-- Title: G Pages: 1 -->
<svg width="467pt" height="2688pt"
 viewBox="0.00 0.00 466.78 2688.00" xmlns="http://www.w3.org/2000/svg" xmlns:xlink="http://www.w3.org/1999/xlink">
<g id="graph0" class="graph" transform="scale(1 1) rotate(0) translate(4 2684)">
<title>G</title>
<polygon fill="#ffffff" stroke="transparent" points="-4,4 -4,-2684 462.7832,-2684 462.7832,4 -4,4"/>
<g id="clust1" class="cluster">
<title>cluster_Global</title>
<path fill="none" stroke="#c0c0c0" d="M33.8916,-152C33.8916,-152 438.7832,-152 438.7832,-152 444.7832,-152 450.7832,-158 450.7832,-164 450.7832,-164 450.7832,-2660 450.7832,-2660 450.7832,-2666 444.7832,-2672 438.7832,-2672 438.7832,-2672 33.8916,-2672 33.8916,-2672 27.8916,-2672 21.8916,-2666 21.8916,-2660 21.8916,-2660 21.8916,-164 21.8916,-164 21.8916,-158 27.8916,-152 33.8916,-152"/>
<text text-anchor="middle" x="236.3374" y="-2659.2" font-family="Times,serif" font-size="11.00" fill="#c0c0c0">Global</text>
</g>
<g id="clust2" class="cluster">
<title>cluster_\Jcupitt</title>
<path fill="none" stroke="#c0c0c0" d="M41.8916,-160C41.8916,-160 430.7832,-160 430.7832,-160 436.7832,-160 442.7832,-166 442.7832,-172 442.7832,-172 442.7832,-2632 442.7832,-2632 442.7832,-2638 436.7832,-2644 430.7832,-2644 430.7832,-2644 41.8916,-2644 41.8916,-2644 35.8916,-2644 29.8916,-2638 29.8916,-2632 29.8916,-2632 29.8916,-172 29.8916,-172 29.8916,-166 35.8916,-160 41.8916,-160"/>
<text text-anchor="middle" x="236.3374" y="-2631.2" font-family="Times,serif" font-size="11.00" fill="#c0c0c0">Jcupitt</text>
</g>
<g id="clust3" class="cluster">
<title>cluster_\Jcupitt\Vips</title>
<path fill="none" stroke="#c0c0c0" d="M49.8916,-168C49.8916,-168 422.7832,-168 422.7832,-168 428.7832,-168 434.7832,-174 434.7832,-180 434.7832,-180 434.7832,-2604 434.7832,-2604 434.7832,-2610 428.7832,-2616 422.7832,-2616 422.7832,-2616 49.8916,-2616 49.8916,-2616 43.8916,-2616 37.8916,-2610 37.8916,-2604 37.8916,-2604 37.8916,-180 37.8916,-180 37.8916,-174 43.8916,-168 49.8916,-168"/>
<text text-anchor="middle" x="236.3374" y="-2603.2" font-family="Times,serif" font-size="11.00" fill="#c0c0c0">Vips</text>
</g>
<!-- \\Jcupitt\\Vips\\ForeignTiffCompression -->
<g id="node1" class="node">
<title>\\Jcupitt\\Vips\\ForeignTiffCompression</title>
<polygon fill="none" stroke="#000000" points="426.7832,-2588 261.7832,-2588 261.7832,-2552 426.7832,-2552 426.7832,-2588"/>
<text text-anchor="start" x="310.2832" y="-2573.2" font-family="Courier,monospace" font-size="11.00" fill="#000000">«abstract»</text>
<text text-anchor="start" x="269.7832" y="-2561.2" font-family="Courier,monospace" font-size="11.00" fill="#000000">ForeignTiffCompression</text>
</g>
<!-- \\Jcupitt\\Vips\\Precision -->
<g id="node2" class="node">
<title>\\Jcupitt\\Vips\\Precision</title>
<polygon fill="none" stroke="#000000" points="386.2832,-2534 302.2832,-2534 302.2832,-2498 386.2832,-2498 386.2832,-2534"/>
<text text-anchor="start" x="310.2832" y="-2519.2" font-family="Courier,monospace" font-size="11.00" fill="#000000">«abstract»</text>
<text text-anchor="start" x="313.7832" y="-2507.2" font-family="Courier,monospace" font-size="11.00" fill="#000000">Precision</text>
</g>
<!-- \\Jcupitt\\Vips\\Kernel -->
<g id="node3" class="node">
<title>\\Jcupitt\\Vips\\Kernel</title>
<polygon fill="none" stroke="#000000" points="386.2832,-2480 302.2832,-2480 302.2832,-2444 386.2832,-2444 386.2832,-2480"/>
<text text-anchor="start" x="310.2832" y="-2465.2" font-family="Courier,monospace" font-size="11.00" fill="#000000">«abstract»</text>
<text text-anchor="start" x="323.7832" y="-2453.2" font-family="Courier,monospace" font-size="11.00" fill="#000000">Kernel</text>
</g>
<!-- \\Jcupitt\\Vips\\Token -->
<g id="node4" class="node">
<title>\\Jcupitt\\Vips\\Token</title>
<polygon fill="none" stroke="#000000" points="386.2832,-2426 302.2832,-2426 302.2832,-2390 386.2832,-2390 386.2832,-2426"/>
<text text-anchor="start" x="310.2832" y="-2411.2" font-family="Courier,monospace" font-size="11.00" fill="#000000">«abstract»</text>
<text text-anchor="start" x="327.2832" y="-2399.2" font-family="Courier,monospace" font-size="11.00" fill="#000000">Token</text>
</g>
<!-- \\Jcupitt\\Vips\\OperationComplex -->
<g id="node5" class="node">
<title>\\Jcupitt\\Vips\\OperationComplex</title>
<polygon fill="none" stroke="#000000" points="406.7832,-2372 281.7832,-2372 281.7832,-2336 406.7832,-2336 406.7832,-2372"/>
<text text-anchor="start" x="310.2832" y="-2357.2" font-family="Courier,monospace" font-size="11.00" fill="#000000">«abstract»</text>
<text text-anchor="start" x="289.7832" y="-2345.2" font-family="Courier,monospace" font-size="11.00" fill="#000000">OperationComplex</text>
</g>
<!-- \\Jcupitt\\Vips\\ImageAutodoc -->
<g id="node6" class="node">
<title>\\Jcupitt\\Vips\\ImageAutodoc</title>
<polygon fill="none" stroke="#000000" points="143.8916,-320 45.8916,-320 45.8916,-284 143.8916,-284 143.8916,-320"/>
<text text-anchor="start" x="60.8916" y="-305.2" font-family="Courier,monospace" font-size="11.00" fill="#000000">«abstract»</text>
<text text-anchor="start" x="53.8916" y="-293.2" font-family="Courier,monospace" font-size="11.00" fill="#000000">ImageAutodoc</text>
</g>
<!-- \\Jcupitt\\Vips\\Angle45 -->
<g id="node7" class="node">
<title>\\Jcupitt\\Vips\\Angle45</title>
<polygon fill="none" stroke="#000000" points="386.2832,-2318 302.2832,-2318 302.2832,-2282 386.2832,-2282 386.2832,-2318"/>
<text text-anchor="start" x="310.2832" y="-2303.2" font-family="Courier,monospace" font-size="11.00" fill="#000000">«abstract»</text>
<text text-anchor="start" x="320.2832" y="-2291.2" font-family="Courier,monospace" font-size="11.00" fill="#000000">Angle45</text>
</g>
<!-- \\Jcupitt\\Vips\\Intent -->
<g id="node8" class="node">
<title>\\Jcupitt\\Vips\\Intent</title>
<polygon fill="none" stroke="#000000" points="386.2832,-2264 302.2832,-2264 302.2832,-2228 386.2832,-2228 386.2832,-2264"/>
<text text-anchor="start" x="310.2832" y="-2249.2" font-family="Courier,monospace" font-size="11.00" fill="#000000">«abstract»</text>
<text text-anchor="start" x="323.7832" y="-2237.2" font-family="Courier,monospace" font-size="11.00" fill="#000000">Intent</text>
</g>
<!-- \\Jcupitt\\Vips\\Align -->
<g id="node9" class="node">
<title>\\Jcupitt\\Vips\\Align</title>
<polygon fill="none" stroke="#000000" points="386.2832,-2210 302.2832,-2210 302.2832,-2174 386.2832,-2174 386.2832,-2210"/>
<text text-anchor="start" x="310.2832" y="-2195.2" font-family="Courier,monospace" font-size="11.00" fill="#000000">«abstract»</text>
<text text-anchor="start" x="327.2832" y="-2183.2" font-family="Courier,monospace" font-size="11.00" fill="#000000">Align</text>
</g>
<!-- \\Jcupitt\\Vips\\OperationComplexget -->
<g id="node10" class="node">
<title>\\Jcupitt\\Vips\\OperationComplexget</title>
<polygon fill="none" stroke="#000000" points="416.7832,-2156 271.7832,-2156 271.7832,-2120 416.7832,-2120 416.7832,-2156"/>
<text text-anchor="start" x="310.2832" y="-2141.2" font-family="Courier,monospace" font-size="11.00" fill="#000000">«abstract»</text>
<text text-anchor="start" x="279.7832" y="-2129.2" font-family="Courier,monospace" font-size="11.00" fill="#000000">OperationComplexget</text>
</g>
<!-- \\Jcupitt\\Vips\\CombineMode -->
<g id="node11" class="node">
<title>\\Jcupitt\\Vips\\CombineMode</title>
<polygon fill="none" stroke="#000000" points="389.7832,-2102 298.7832,-2102 298.7832,-2066 389.7832,-2066 389.7832,-2102"/>
<text text-anchor="start" x="310.2832" y="-2087.2" font-family="Courier,monospace" font-size="11.00" fill="#000000">«abstract»</text>
<text text-anchor="start" x="306.7832" y="-2075.2" font-family="Courier,monospace" font-size="11.00" fill="#000000">CombineMode</text>
</g>
<!-- \\Jcupitt\\Vips\\OperationComplex2 -->
<g id="node12" class="node">
<title>\\Jcupitt\\Vips\\OperationComplex2</title>
<polygon fill="none" stroke="#000000" points="409.7832,-2048 278.7832,-2048 278.7832,-2012 409.7832,-2012 409.7832,-2048"/>
<text text-anchor="start" x="310.2832" y="-2033.2" font-family="Courier,monospace" font-size="11.00" fill="#000000">«abstract»</text>
<text text-anchor="start" x="286.7832" y="-2021.2" font-family="Courier,monospace" font-size="11.00" fill="#000000">OperationComplex2</text>
</g>
<!-- \\Jcupitt\\Vips\\OperationMorphology -->
<g id="node13" class="node">
<title>\\Jcupitt\\Vips\\OperationMorphology</title>
<polygon fill="none" stroke="#000000" points="416.7832,-1994 271.7832,-1994 271.7832,-1958 416.7832,-1958 416.7832,-1994"/>
<text text-anchor="start" x="310.2832" y="-1979.2" font-family="Courier,monospace" font-size="11.00" fill="#000000">«abstract»</text>
<text text-anchor="start" x="279.7832" y="-1967.2" font-family="Courier,monospace" font-size="11.00" fill="#000000">OperationMorphology</text>
</g>
<!-- \\Jcupitt\\Vips\\RegionShrink -->
<g id="node14" class="node">
<title>\\Jcupitt\\Vips\\RegionShrink</title>
<polygon fill="none" stroke="#000000" points="393.2832,-1940 295.2832,-1940 295.2832,-1904 393.2832,-1904 393.2832,-1940"/>
<text text-anchor="start" x="310.2832" y="-1925.2" font-family="Courier,monospace" font-size="11.00" fill="#000000">«abstract»</text>
<text text-anchor="start" x="303.2832" y="-1913.2" font-family="Courier,monospace" font-size="11.00" fill="#000000">RegionShrink</text>
</g>
<!-- \\Jcupitt\\Vips\\ForeignTiffPredictor -->
<g id="node15" class="node">
<title>\\Jcupitt\\Vips\\ForeignTiffPredictor</title>
<polygon fill="none" stroke="#000000" points="420.2832,-1886 268.2832,-1886 268.2832,-1850 420.2832,-1850 420.2832,-1886"/>
<text text-anchor="start" x="310.2832" y="-1871.2" font-family="Courier,monospace" font-size="11.00" fill="#000000">«abstract»</text>
<text text-anchor="start" x="276.2832" y="-1859.2" font-family="Courier,monospace" font-size="11.00" fill="#000000">ForeignTiffPredictor</text>
</g>
<!-- \\Jcupitt\\Vips\\Coding -->
<g id="node16" class="node">
<title>\\Jcupitt\\Vips\\Coding</title>
<polygon fill="none" stroke="#000000" points="386.2832,-1832 302.2832,-1832 302.2832,-1796 386.2832,-1796 386.2832,-1832"/>
<text text-anchor="start" x="310.2832" y="-1817.2" font-family="Courier,monospace" font-size="11.00" fill="#000000">«abstract»</text>
<text text-anchor="start" x="323.7832" y="-1805.2" font-family="Courier,monospace" font-size="11.00" fill="#000000">Coding</text>
</g>
<!-- \\Jcupitt\\Vips\\BlendMode -->
<g id="node17" class="node">
<title>\\Jcupitt\\Vips\\BlendMode</title>
<polygon fill="none" stroke="#000000" points="386.2832,-1778 302.2832,-1778 302.2832,-1742 386.2832,-1742 386.2832,-1778"/>
<text text-anchor="start" x="310.2832" y="-1763.2" font-family="Courier,monospace" font-size="11.00" fill="#000000">«abstract»</text>
<text text-anchor="start" x="313.7832" y="-1751.2" font-family="Courier,monospace" font-size="11.00" fill="#000000">BlendMode</text>
</g>
<!-- \\Jcupitt\\Vips\\OperationBoolean -->
<g id="node18" class="node">
<title>\\Jcupitt\\Vips\\OperationBoolean</title>
<polygon fill="none" stroke="#000000" points="406.7832,-1724 281.7832,-1724 281.7832,-1688 406.7832,-1688 406.7832,-1724"/>
<text text-anchor="start" x="310.2832" y="-1709.2" font-family="Courier,monospace" font-size="11.00" fill="#000000">«abstract»</text>
<text text-anchor="start" x="289.7832" y="-1697.2" font-family="Courier,monospace" font-size="11.00" fill="#000000">OperationBoolean</text>
</g>
<!-- \\Jcupitt\\Vips\\OperationMath2 -->
<g id="node19" class="node">
<title>\\Jcupitt\\Vips\\OperationMath2</title>
<polygon fill="none" stroke="#000000" points="399.7832,-1670 288.7832,-1670 288.7832,-1634 399.7832,-1634 399.7832,-1670"/>
<text text-anchor="start" x="310.2832" y="-1655.2" font-family="Courier,monospace" font-size="11.00" fill="#000000">«abstract»</text>
<text text-anchor="start" x="296.7832" y="-1643.2" font-family="Courier,monospace" font-size="11.00" fill="#000000">OperationMath2</text>
</g>
<!-- \\Jcupitt\\Vips\\ForeignWebpPreset -->
<g id="node20" class="node">
<title>\\Jcupitt\\Vips\\ForeignWebpPreset</title>
<polygon fill="none" stroke="#000000" points="409.7832,-1616 278.7832,-1616 278.7832,-1580 409.7832,-1580 409.7832,-1616"/>
<text text-anchor="start" x="310.2832" y="-1601.2" font-family="Courier,monospace" font-size="11.00" fill="#000000">«abstract»</text>
<text text-anchor="start" x="286.7832" y="-1589.2" font-family="Courier,monospace" font-size="11.00" fill="#000000">ForeignWebpPreset</text>
</g>
<!-- \\Jcupitt\\Vips\\Angle -->
<g id="node21" class="node">
<title>\\Jcupitt\\Vips\\Angle</title>
<polygon fill="none" stroke="#000000" points="386.2832,-1562 302.2832,-1562 302.2832,-1526 386.2832,-1526 386.2832,-1562"/>
<text text-anchor="start" x="310.2832" y="-1547.2" font-family="Courier,monospace" font-size="11.00" fill="#000000">«abstract»</text>
<text text-anchor="start" x="327.2832" y="-1535.2" font-family="Courier,monospace" font-size="11.00" fill="#000000">Angle</text>
</g>
<!-- \\Jcupitt\\Vips\\ImageType -->
<g id="node22" class="node">
<title>\\Jcupitt\\Vips\\ImageType</title>
<polygon fill="none" stroke="#000000" points="386.2832,-1508 302.2832,-1508 302.2832,-1472 386.2832,-1472 386.2832,-1508"/>
<text text-anchor="start" x="310.2832" y="-1493.2" font-family="Courier,monospace" font-size="11.00" fill="#000000">«abstract»</text>
<text text-anchor="start" x="313.7832" y="-1481.2" font-family="Courier,monospace" font-size="11.00" fill="#000000">ImageType</text>
</g>
<!-- \\Jcupitt\\Vips\\DemandStyle -->
<g id="node23" class="node">
<title>\\Jcupitt\\Vips\\DemandStyle</title>
<polygon fill="none" stroke="#000000" points="389.7832,-1454 298.7832,-1454 298.7832,-1418 389.7832,-1418 389.7832,-1454"/>
<text text-anchor="start" x="310.2832" y="-1439.2" font-family="Courier,monospace" font-size="11.00" fill="#000000">«abstract»</text>
<text text-anchor="start" x="306.7832" y="-1427.2" font-family="Courier,monospace" font-size="11.00" fill="#000000">DemandStyle</text>
</g>
<!-- \\Jcupitt\\Vips\\Saveable -->
<g id="node24" class="node">
<title>\\Jcupitt\\Vips\\Saveable</title>
<polygon fill="none" stroke="#000000" points="386.2832,-1400 302.2832,-1400 302.2832,-1364 386.2832,-1364 386.2832,-1400"/>
<text text-anchor="start" x="310.2832" y="-1385.2" font-family="Courier,monospace" font-size="11.00" fill="#000000">«abstract»</text>
<text text-anchor="start" x="316.7832" y="-1373.2" font-family="Courier,monospace" font-size="11.00" fill="#000000">Saveable</text>
</g>
<!-- \\Jcupitt\\Vips\\ForeignDzContainer -->
<g id="node25" class="node">
<title>\\Jcupitt\\Vips\\ForeignDzContainer</title>
<polygon fill="none" stroke="#000000" points="413.2832,-1346 275.2832,-1346 275.2832,-1310 413.2832,-1310 413.2832,-1346"/>
<text text-anchor="start" x="310.2832" y="-1331.2" font-family="Courier,monospace" font-size="11.00" fill="#000000">«abstract»</text>
<text text-anchor="start" x="283.2832" y="-1319.2" font-family="Courier,monospace" font-size="11.00" fill="#000000">ForeignDzContainer</text>
</g>
<!-- \\Jcupitt\\Vips\\Extend -->
<g id="node26" class="node">
<title>\\Jcupitt\\Vips\\Extend</title>
<polygon fill="none" stroke="#000000" points="386.2832,-1292 302.2832,-1292 302.2832,-1256 386.2832,-1256 386.2832,-1292"/>
<text text-anchor="start" x="310.2832" y="-1277.2" font-family="Courier,monospace" font-size="11.00" fill="#000000">«abstract»</text>
<text text-anchor="start" x="323.7832" y="-1265.2" font-family="Courier,monospace" font-size="11.00" fill="#000000">Extend</text>
</g>
<!-- \\Jcupitt\\Vips\\PCS -->
<g id="node27" class="node">
<title>\\Jcupitt\\Vips\\PCS</title>
<polygon fill="none" stroke="#000000" points="386.2832,-1238 302.2832,-1238 302.2832,-1202 386.2832,-1202 386.2832,-1238"/>
<text text-anchor="start" x="310.2832" y="-1223.2" font-family="Courier,monospace" font-size="11.00" fill="#000000">«abstract»</text>
<text text-anchor="start" x="333.7832" y="-1211.2" font-family="Courier,monospace" font-size="11.00" fill="#000000">PCS</text>
</g>
<!-- \\Jcupitt\\Vips\\Config -->
<g id="node28" class="node">
<title>\\Jcupitt\\Vips\\Config</title>
<polygon fill="none" stroke="#000000" points="372.7832,-1184 315.7832,-1184 315.7832,-1148 372.7832,-1148 372.7832,-1184"/>
<text text-anchor="middle" x="344.2832" y="-1163.2" font-family="Courier,monospace" font-size="11.00" fill="#000000">Config</text>
</g>
<!-- \\Jcupitt\\Vips\\Utils -->
<g id="node29" class="node">
<title>\\Jcupitt\\Vips\\Utils</title>
<polygon fill="none" stroke="#000000" points="371.2832,-1130 317.2832,-1130 317.2832,-1094 371.2832,-1094 371.2832,-1130"/>
<text text-anchor="middle" x="344.2832" y="-1109.2" font-family="Courier,monospace" font-size="11.00" fill="#000000">Utils</text>
</g>
<!-- \\Jcupitt\\Vips\\ForeignDzLayout -->
<g id="node30" class="node">
<title>\\Jcupitt\\Vips\\ForeignDzLayout</title>
<polygon fill="none" stroke="#000000" points="403.2832,-1076 285.2832,-1076 285.2832,-1040 403.2832,-1040 403.2832,-1076"/>
<text text-anchor="start" x="310.2832" y="-1061.2" font-family="Courier,monospace" font-size="11.00" fill="#000000">«abstract»</text>
<text text-anchor="start" x="293.2832" y="-1049.2" font-family="Courier,monospace" font-size="11.00" fill="#000000">ForeignDzLayout</text>
</g>
<!-- \\Jcupitt\\Vips\\OperationRound -->
<g id="node31" class="node">
<title>\\Jcupitt\\Vips\\OperationRound</title>
<polygon fill="none" stroke="#000000" points="399.7832,-1022 288.7832,-1022 288.7832,-986 399.7832,-986 399.7832,-1022"/>
<text text-anchor="start" x="310.2832" y="-1007.2" font-family="Courier,monospace" font-size="11.00" fill="#000000">«abstract»</text>
<text text-anchor="start" x="296.7832" y="-995.2" font-family="Courier,monospace" font-size="11.00" fill="#000000">OperationRound</text>
</g>
<!-- \\Jcupitt\\Vips\\Exception -->
<g id="node32" class="node">
<title>\\Jcupitt\\Vips\\Exception</title>
<polygon fill="none" stroke="#000000" points="382.7832,-968 305.7832,-968 305.7832,-932 382.7832,-932 382.7832,-968"/>
<text text-anchor="middle" x="344.2832" y="-947.2" font-family="Courier,monospace" font-size="11.00" fill="#000000">Exception</text>
</g>
<!-- \\Exception -->
<g id="node47" class="node">
<title>\\Exception</title>
<ellipse fill="none" stroke="#000000" cx="94.8916" cy="-126" rx="40.8928" ry="18"/>
<text text-anchor="middle" x="94.8916" y="-122.3" font-family="Times,serif" font-size="14.00" fill="#c0c0c0">xception</text>
</g>
<!-- \\Jcupitt\\Vips\\Exception&#45;&gt;\\Exception -->
<g id="edge1" class="edge">
<title>\\Jcupitt\\Vips\\Exception&#45;&gt;\\Exception</title>
<path fill="none" stroke="#000000" d="M305.7713,-946.5877C289.7395,-943.1192 272.4189,-936.3 261.7832,-923 155.9709,-790.6814 291.2661,-299.6674 189.7832,-164 178.7648,-149.2701 161.1118,-140.2386 144.0035,-134.7058"/>
<polygon fill="none" stroke="#000000" points="144.6258,-131.2427 134.0475,-131.8359 142.6868,-137.9689 144.6258,-131.2427"/>
</g>
<!-- \\Jcupitt\\Vips\\Access -->
<g id="node33" class="node">
<title>\\Jcupitt\\Vips\\Access</title>
<polygon fill="none" stroke="#000000" points="386.2832,-914 302.2832,-914 302.2832,-878 386.2832,-878 386.2832,-914"/>
<text text-anchor="start" x="310.2832" y="-899.2" font-family="Courier,monospace" font-size="11.00" fill="#000000">«abstract»</text>
<text text-anchor="start" x="323.7832" y="-887.2" font-family="Courier,monospace" font-size="11.00" fill="#000000">Access</text>
</g>
<!-- \\Jcupitt\\Vips\\OperationMath -->
<g id="node34" class="node">
<title>\\Jcupitt\\Vips\\OperationMath</title>
<polygon fill="none" stroke="#000000" points="396.2832,-860 292.2832,-860 292.2832,-824 396.2832,-824 396.2832,-860"/>
<text text-anchor="start" x="310.2832" y="-845.2" font-family="Courier,monospace" font-size="11.00" fill="#000000">«abstract»</text>
<text text-anchor="start" x="300.2832" y="-833.2" font-family="Courier,monospace" font-size="11.00" fill="#000000">OperationMath</text>
</g>
<!-- \\Jcupitt\\Vips\\Combine -->
<g id="node35" class="node">
<title>\\Jcupitt\\Vips\\Combine</title>
<polygon fill="none" stroke="#000000" points="386.2832,-806 302.2832,-806 302.2832,-770 386.2832,-770 386.2832,-806"/>
<text text-anchor="start" x="310.2832" y="-791.2" font-family="Courier,monospace" font-size="11.00" fill="#000000">«abstract»</text>
<text text-anchor="start" x="320.2832" y="-779.2" font-family="Courier,monospace" font-size="11.00" fill="#000000">Combine</text>
</g>
<!-- \\Jcupitt\\Vips\\Direction -->
<g id="node36" class="node">
<title>\\Jcupitt\\Vips\\Direction</title>
<polygon fill="none" stroke="#000000" points="386.2832,-752 302.2832,-752 302.2832,-716 386.2832,-716 386.2832,-752"/>
<text text-anchor="start" x="310.2832" y="-737.2" font-family="Courier,monospace" font-size="11.00" fill="#000000">«abstract»</text>
<text text-anchor="start" x="313.7832" y="-725.2" font-family="Courier,monospace" font-size="11.00" fill="#000000">Direction</text>
</g>
<!-- \\Jcupitt\\Vips\\OperationRelational -->
<g id="node37" class="node">
<title>\\Jcupitt\\Vips\\OperationRelational</title>
<polygon fill="none" stroke="#000000" points="416.7832,-698 271.7832,-698 271.7832,-662 416.7832,-662 416.7832,-698"/>
<text text-anchor="start" x="310.2832" y="-683.2" font-family="Courier,monospace" font-size="11.00" fill="#000000">«abstract»</text>
<text text-anchor="start" x="279.7832" y="-671.2" font-family="Courier,monospace" font-size="11.00" fill="#000000">OperationRelational</text>
</g>
<!-- \\Jcupitt\\Vips\\BandFormat -->
<g id="node38" class="node">
<title>\\Jcupitt\\Vips\\BandFormat</title>
<polygon fill="none" stroke="#000000" points="386.2832,-644 302.2832,-644 302.2832,-608 386.2832,-608 386.2832,-644"/>
<text text-anchor="start" x="310.2832" y="-629.2" font-family="Courier,monospace" font-size="11.00" fill="#000000">«abstract»</text>
<text text-anchor="start" x="310.2832" y="-617.2" font-family="Courier,monospace" font-size="11.00" fill="#000000">BandFormat</text>
</g>
<!-- \\Jcupitt\\Vips\\Interpretation -->
<g id="node39" class="node">
<title>\\Jcupitt\\Vips\\Interpretation</title>
<polygon fill="none" stroke="#000000" points="399.7832,-590 288.7832,-590 288.7832,-554 399.7832,-554 399.7832,-590"/>
<text text-anchor="start" x="310.2832" y="-575.2" font-family="Courier,monospace" font-size="11.00" fill="#000000">«abstract»</text>
<text text-anchor="start" x="296.7832" y="-563.2" font-family="Courier,monospace" font-size="11.00" fill="#000000">Interpretation</text>
</g>
<!-- \\Jcupitt\\Vips\\CompassDirection -->
<g id="node40" class="node">
<title>\\Jcupitt\\Vips\\CompassDirection</title>
<polygon fill="none" stroke="#000000" points="406.7832,-536 281.7832,-536 281.7832,-500 406.7832,-500 406.7832,-536"/>
<text text-anchor="start" x="310.2832" y="-521.2" font-family="Courier,monospace" font-size="11.00" fill="#000000">«abstract»</text>
<text text-anchor="start" x="289.7832" y="-509.2" font-family="Courier,monospace" font-size="11.00" fill="#000000">CompassDirection</text>
</g>
<!-- \\Jcupitt\\Vips\\Interesting -->
<g id="node41" class="node">
<title>\\Jcupitt\\Vips\\Interesting</title>
<polygon fill="none" stroke="#000000" points="389.7832,-482 298.7832,-482 298.7832,-446 389.7832,-446 389.7832,-482"/>
<text text-anchor="start" x="310.2832" y="-467.2" font-family="Courier,monospace" font-size="11.00" fill="#000000">«abstract»</text>
<text text-anchor="start" x="306.7832" y="-455.2" font-family="Courier,monospace" font-size="11.00" fill="#000000">Interesting</text>
</g>
<!-- \\Jcupitt\\Vips\\ForeignTiffResunit -->
<g id="node42" class="node">
<title>\\Jcupitt\\Vips\\ForeignTiffResunit</title>
<polygon fill="none" stroke="#000000" points="413.2832,-428 275.2832,-428 275.2832,-392 413.2832,-392 413.2832,-428"/>
<text text-anchor="start" x="310.2832" y="-413.2" font-family="Courier,monospace" font-size="11.00" fill="#000000">«abstract»</text>
<text text-anchor="start" x="283.2832" y="-401.2" font-family="Courier,monospace" font-size="11.00" fill="#000000">ForeignTiffResunit</text>
</g>
<!-- \\Jcupitt\\Vips\\Size -->
<g id="node43" class="node">
<title>\\Jcupitt\\Vips\\Size</title>
<polygon fill="none" stroke="#000000" points="386.2832,-374 302.2832,-374 302.2832,-338 386.2832,-338 386.2832,-374"/>
<text text-anchor="start" x="310.2832" y="-359.2" font-family="Courier,monospace" font-size="11.00" fill="#000000">«abstract»</text>
<text text-anchor="start" x="330.2832" y="-347.2" font-family="Courier,monospace" font-size="11.00" fill="#000000">Size</text>
</g>
<!-- \\Jcupitt\\Vips\\DebugLogger -->
<g id="node44" class="node">
<title>\\Jcupitt\\Vips\\DebugLogger</title>
<polygon fill="none" stroke="#000000" points="389.7832,-266 298.7832,-266 298.7832,-230 389.7832,-230 389.7832,-266"/>
<text text-anchor="middle" x="344.2832" y="-245.2" font-family="Courier,monospace" font-size="11.00" fill="#000000">DebugLogger</text>
</g>
<!-- \\Psr\\Log\\LoggerInterface -->
<g id="node48" class="node">
<title>\\Psr\\Log\\LoggerInterface</title>
<ellipse fill="none" stroke="#000000" cx="94.8916" cy="-18" rx="94.7833" ry="18"/>
<text text-anchor="middle" x="94.8916" y="-14.3" font-family="Times,serif" font-size="14.00" fill="#c0c0c0">\PsrLogLoggerInterface</text>
</g>
<!-- \\Jcupitt\\Vips\\DebugLogger&#45;&gt;\\Psr\\Log\\LoggerInterface -->
<g id="edge2" class="edge">
<title>\\Jcupitt\\Vips\\DebugLogger&#45;&gt;\\Psr\\Log\\LoggerInterface</title>
<path fill="none" stroke="#000000" stroke-dasharray="1,5" d="M298.5871,-240.583C285.4435,-236.5879 271.9337,-230.4445 261.7832,-221 199.9092,-163.4298 252.7701,-101.3504 189.7832,-45 185.2854,-40.9762 180.2282,-37.5485 174.8507,-34.6291"/>
<polygon fill="none" stroke="#000000" points="176.0726,-31.3339 165.5407,-30.1803 173.0545,-37.6499 176.0726,-31.3339"/>
</g>
<!-- \\Jcupitt\\Vips\\Image -->
<g id="node45" class="node">
<title>\\Jcupitt\\Vips\\Image</title>
<polygon fill="none" stroke="#000000" points="371.2832,-320 317.2832,-320 317.2832,-284 371.2832,-284 371.2832,-320"/>
<text text-anchor="middle" x="344.2832" y="-299.2" font-family="Courier,monospace" font-size="11.00" fill="#000000">Image</text>
</g>
<!-- \\Jcupitt\\Vips\\Image&#45;&gt;\\Jcupitt\\Vips\\ImageAutodoc -->
<g id="edge3" class="edge">
<title>\\Jcupitt\\Vips\\Image&#45;&gt;\\Jcupitt\\Vips\\ImageAutodoc</title>
<path fill="none" stroke="#000000" d="M317.1191,-302C278.2992,-302 205.9504,-302 154.3492,-302"/>
<polygon fill="none" stroke="#000000" points="154.3217,-298.5001 144.3217,-302 154.3216,-305.5001 154.3217,-298.5001"/>
</g>
<!-- \\ArrayAccess -->
<g id="node49" class="node">
<title>\\ArrayAccess</title>
<ellipse fill="none" stroke="#000000" cx="94.8916" cy="-72" rx="58.4896" ry="18"/>
<text text-anchor="middle" x="94.8916" y="-68.3" font-family="Times,serif" font-size="14.00" fill="#c0c0c0">\ArrayAccess</text>
</g>
<!-- \\Jcupitt\\Vips\\Image&#45;&gt;\\ArrayAccess -->
<g id="edge4" class="edge">
<title>\\Jcupitt\\Vips\\Image&#45;&gt;\\ArrayAccess</title>
<path fill="none" stroke="#000000" stroke-dasharray="1,5" d="M317.1751,-299.0384C299.4632,-295.8078 276.8987,-289.0641 261.7832,-275 199.9092,-217.4298 252.7701,-155.3504 189.7832,-99 181.0948,-91.2271 170.3189,-85.6788 159.1795,-81.7217"/>
<polygon fill="none" stroke="#000000" points="159.9292,-78.2888 149.3401,-78.6379 157.8357,-84.9685 159.9292,-78.2888"/>
</g>
<!-- \\Jcupitt\\Vips\\ForeignDzDepth -->
<g id="node46" class="node">
<title>\\Jcupitt\\Vips\\ForeignDzDepth</title>
<polygon fill="none" stroke="#000000" points="399.7832,-212 288.7832,-212 288.7832,-176 399.7832,-176 399.7832,-212"/>
<text text-anchor="start" x="310.2832" y="-197.2" font-family="Courier,monospace" font-size="11.00" fill="#000000">«abstract»</text>
<text text-anchor="start" x="296.7832" y="-185.2" font-family="Courier,monospace" font-size="11.00" fill="#000000">ForeignDzDepth</text>
</g>
</g>
</svg>
