<?xml version="1.0" encoding="UTF-8" standalone="no"?>
<!DOCTYPE svg PUBLIC "-//W3C//DTD SVG 1.1//EN"
 "http://www.w3.org/Graphics/SVG/1.1/DTD/svg11.dtd">
<!-- Generated by graphviz version 2.38.0 (20140413.2041)
 -->
<!-- Title: G Pages: 1 -->
<svg width="359pt" height="2058pt"
 viewBox="0.00 0.00 358.89 2058.00" xmlns="http://www.w3.org/2000/svg" xmlns:xlink="http://www.w3.org/1999/xlink">
<g id="graph0" class="graph" transform="scale(1 1) rotate(0) translate(4 2054)">
<title>G</title>
<polygon fill="white" stroke="none" points="-4,4 -4,-2054 354.893,-2054 354.893,4 -4,4"/>
<g id="clust1" class="cluster"><title>cluster_Global</title>
<path fill="none" stroke="gray" d="M141.893,-8C141.893,-8 330.893,-8 330.893,-8 336.893,-8 342.893,-14 342.893,-20 342.893,-20 342.893,-2030 342.893,-2030 342.893,-2036 336.893,-2042 330.893,-2042 330.893,-2042 141.893,-2042 141.893,-2042 135.893,-2042 129.893,-2036 129.893,-2030 129.893,-2030 129.893,-20 129.893,-20 129.893,-14 135.893,-8 141.893,-8"/>
<text text-anchor="middle" x="236.393" y="-2029.2" font-family="Times,serif" font-size="11.00" fill="gray">Global</text>
</g>
<g id="clust2" class="cluster"><title>cluster_\Jcupitt</title>
<path fill="none" stroke="gray" d="M149.893,-16C149.893,-16 322.893,-16 322.893,-16 328.893,-16 334.893,-22 334.893,-28 334.893,-28 334.893,-2002 334.893,-2002 334.893,-2008 328.893,-2014 322.893,-2014 322.893,-2014 149.893,-2014 149.893,-2014 143.893,-2014 137.893,-2008 137.893,-2002 137.893,-2002 137.893,-28 137.893,-28 137.893,-22 143.893,-16 149.893,-16"/>
<text text-anchor="middle" x="236.393" y="-2001.2" font-family="Times,serif" font-size="11.00" fill="gray">Jcupitt</text>
</g>
<g id="clust3" class="cluster"><title>cluster_\Jcupitt\Vips</title>
<path fill="none" stroke="gray" d="M157.893,-24C157.893,-24 314.893,-24 314.893,-24 320.893,-24 326.893,-30 326.893,-36 326.893,-36 326.893,-1974 326.893,-1974 326.893,-1980 320.893,-1986 314.893,-1986 314.893,-1986 157.893,-1986 157.893,-1986 151.893,-1986 145.893,-1980 145.893,-1974 145.893,-1974 145.893,-36 145.893,-36 145.893,-30 151.893,-24 157.893,-24"/>
<text text-anchor="middle" x="236.393" y="-1973.2" font-family="Times,serif" font-size="11.00" fill="gray">Vips</text>
</g>
<!-- \\Jcupitt\\Vips\\ForeignTiffCompression -->
<g id="node1" class="node"><title>\\Jcupitt\\Vips\\ForeignTiffCompression</title>
<polygon fill="none" stroke="black" points="318.893,-1958 153.893,-1958 153.893,-1922 318.893,-1922 318.893,-1958"/>
<text text-anchor="start" x="202.393" y="-1943.2" font-family="Courier,monospace" font-size="11.00">«abstract»</text>
<text text-anchor="start" x="161.893" y="-1931.2" font-family="Courier,monospace" font-size="11.00">ForeignTiffCompression</text>
</g>
<!-- \\Jcupitt\\Vips\\Precision -->
<g id="node2" class="node"><title>\\Jcupitt\\Vips\\Precision</title>
<polygon fill="none" stroke="black" points="278.393,-1904 194.393,-1904 194.393,-1868 278.393,-1868 278.393,-1904"/>
<text text-anchor="start" x="202.393" y="-1889.2" font-family="Courier,monospace" font-size="11.00">«abstract»</text>
<text text-anchor="start" x="205.893" y="-1877.2" font-family="Courier,monospace" font-size="11.00">Precision</text>
</g>
<!-- \\Jcupitt\\Vips\\Kernel -->
<g id="node3" class="node"><title>\\Jcupitt\\Vips\\Kernel</title>
<polygon fill="none" stroke="black" points="278.393,-1850 194.393,-1850 194.393,-1814 278.393,-1814 278.393,-1850"/>
<text text-anchor="start" x="202.393" y="-1835.2" font-family="Courier,monospace" font-size="11.00">«abstract»</text>
<text text-anchor="start" x="215.893" y="-1823.2" font-family="Courier,monospace" font-size="11.00">Kernel</text>
</g>
<!-- \\Jcupitt\\Vips\\Token -->
<g id="node4" class="node"><title>\\Jcupitt\\Vips\\Token</title>
<polygon fill="none" stroke="black" points="278.393,-1796 194.393,-1796 194.393,-1760 278.393,-1760 278.393,-1796"/>
<text text-anchor="start" x="202.393" y="-1781.2" font-family="Courier,monospace" font-size="11.00">«abstract»</text>
<text text-anchor="start" x="219.393" y="-1769.2" font-family="Courier,monospace" font-size="11.00">Token</text>
</g>
<!-- \\Jcupitt\\Vips\\OperationComplex -->
<g id="node5" class="node"><title>\\Jcupitt\\Vips\\OperationComplex</title>
<polygon fill="none" stroke="black" points="298.893,-1742 173.893,-1742 173.893,-1706 298.893,-1706 298.893,-1742"/>
<text text-anchor="start" x="202.393" y="-1727.2" font-family="Courier,monospace" font-size="11.00">«abstract»</text>
<text text-anchor="start" x="181.893" y="-1715.2" font-family="Courier,monospace" font-size="11.00">OperationComplex</text>
</g>
<!-- \\Jcupitt\\Vips\\ImageAutodoc -->
<g id="node6" class="node"><title>\\Jcupitt\\Vips\\ImageAutodoc</title>
<polygon fill="none" stroke="black" points="285.393,-1688 187.393,-1688 187.393,-1652 285.393,-1652 285.393,-1688"/>
<text text-anchor="start" x="202.393" y="-1673.2" font-family="Courier,monospace" font-size="11.00">«abstract»</text>
<text text-anchor="start" x="195.393" y="-1661.2" font-family="Courier,monospace" font-size="11.00">ImageAutodoc</text>
</g>
<!-- \\Jcupitt\\Vips\\Angle45 -->
<g id="node7" class="node"><title>\\Jcupitt\\Vips\\Angle45</title>
<polygon fill="none" stroke="black" points="278.393,-1634 194.393,-1634 194.393,-1598 278.393,-1598 278.393,-1634"/>
<text text-anchor="start" x="202.393" y="-1619.2" font-family="Courier,monospace" font-size="11.00">«abstract»</text>
<text text-anchor="start" x="212.393" y="-1607.2" font-family="Courier,monospace" font-size="11.00">Angle45</text>
</g>
<!-- \\Jcupitt\\Vips\\Intent -->
<g id="node8" class="node"><title>\\Jcupitt\\Vips\\Intent</title>
<polygon fill="none" stroke="black" points="278.393,-1580 194.393,-1580 194.393,-1544 278.393,-1544 278.393,-1580"/>
<text text-anchor="start" x="202.393" y="-1565.2" font-family="Courier,monospace" font-size="11.00">«abstract»</text>
<text text-anchor="start" x="215.893" y="-1553.2" font-family="Courier,monospace" font-size="11.00">Intent</text>
</g>
<!-- \\Jcupitt\\Vips\\Align -->
<g id="node9" class="node"><title>\\Jcupitt\\Vips\\Align</title>
<polygon fill="none" stroke="black" points="278.393,-1526 194.393,-1526 194.393,-1490 278.393,-1490 278.393,-1526"/>
<text text-anchor="start" x="202.393" y="-1511.2" font-family="Courier,monospace" font-size="11.00">«abstract»</text>
<text text-anchor="start" x="219.393" y="-1499.2" font-family="Courier,monospace" font-size="11.00">Align</text>
</g>
<!-- \\Jcupitt\\Vips\\OperationComplexget -->
<g id="node10" class="node"><title>\\Jcupitt\\Vips\\OperationComplexget</title>
<polygon fill="none" stroke="black" points="308.893,-1472 163.893,-1472 163.893,-1436 308.893,-1436 308.893,-1472"/>
<text text-anchor="start" x="202.393" y="-1457.2" font-family="Courier,monospace" font-size="11.00">«abstract»</text>
<text text-anchor="start" x="171.893" y="-1445.2" font-family="Courier,monospace" font-size="11.00">OperationComplexget</text>
</g>
<!-- \\Jcupitt\\Vips\\CombineMode -->
<g id="node11" class="node"><title>\\Jcupitt\\Vips\\CombineMode</title>
<polygon fill="none" stroke="black" points="281.893,-1418 190.893,-1418 190.893,-1382 281.893,-1382 281.893,-1418"/>
<text text-anchor="start" x="202.393" y="-1403.2" font-family="Courier,monospace" font-size="11.00">«abstract»</text>
<text text-anchor="start" x="198.893" y="-1391.2" font-family="Courier,monospace" font-size="11.00">CombineMode</text>
</g>
<!-- \\Jcupitt\\Vips\\OperationComplex2 -->
<g id="node12" class="node"><title>\\Jcupitt\\Vips\\OperationComplex2</title>
<polygon fill="none" stroke="black" points="301.893,-1364 170.893,-1364 170.893,-1328 301.893,-1328 301.893,-1364"/>
<text text-anchor="start" x="202.393" y="-1349.2" font-family="Courier,monospace" font-size="11.00">«abstract»</text>
<text text-anchor="start" x="178.893" y="-1337.2" font-family="Courier,monospace" font-size="11.00">OperationComplex2</text>
</g>
<!-- \\Jcupitt\\Vips\\OperationMorphology -->
<g id="node13" class="node"><title>\\Jcupitt\\Vips\\OperationMorphology</title>
<polygon fill="none" stroke="black" points="308.893,-1310 163.893,-1310 163.893,-1274 308.893,-1274 308.893,-1310"/>
<text text-anchor="start" x="202.393" y="-1295.2" font-family="Courier,monospace" font-size="11.00">«abstract»</text>
<text text-anchor="start" x="171.893" y="-1283.2" font-family="Courier,monospace" font-size="11.00">OperationMorphology</text>
</g>
<!-- \\Jcupitt\\Vips\\ForeignTiffPredictor -->
<g id="node14" class="node"><title>\\Jcupitt\\Vips\\ForeignTiffPredictor</title>
<polygon fill="none" stroke="black" points="312.393,-1256 160.393,-1256 160.393,-1220 312.393,-1220 312.393,-1256"/>
<text text-anchor="start" x="202.393" y="-1241.2" font-family="Courier,monospace" font-size="11.00">«abstract»</text>
<text text-anchor="start" x="168.393" y="-1229.2" font-family="Courier,monospace" font-size="11.00">ForeignTiffPredictor</text>
</g>
<!-- \\Jcupitt\\Vips\\Coding -->
<g id="node15" class="node"><title>\\Jcupitt\\Vips\\Coding</title>
<polygon fill="none" stroke="black" points="278.393,-1202 194.393,-1202 194.393,-1166 278.393,-1166 278.393,-1202"/>
<text text-anchor="start" x="202.393" y="-1187.2" font-family="Courier,monospace" font-size="11.00">«abstract»</text>
<text text-anchor="start" x="215.893" y="-1175.2" font-family="Courier,monospace" font-size="11.00">Coding</text>
</g>
<!-- \\Jcupitt\\Vips\\OperationMath2 -->
<g id="node16" class="node"><title>\\Jcupitt\\Vips\\OperationMath2</title>
<polygon fill="none" stroke="black" points="291.893,-1148 180.893,-1148 180.893,-1112 291.893,-1112 291.893,-1148"/>
<text text-anchor="start" x="202.393" y="-1133.2" font-family="Courier,monospace" font-size="11.00">«abstract»</text>
<text text-anchor="start" x="188.893" y="-1121.2" font-family="Courier,monospace" font-size="11.00">OperationMath2</text>
</g>
<!-- \\Jcupitt\\Vips\\Angle -->
<g id="node17" class="node"><title>\\Jcupitt\\Vips\\Angle</title>
<polygon fill="none" stroke="black" points="278.393,-1094 194.393,-1094 194.393,-1058 278.393,-1058 278.393,-1094"/>
<text text-anchor="start" x="202.393" y="-1079.2" font-family="Courier,monospace" font-size="11.00">«abstract»</text>
<text text-anchor="start" x="219.393" y="-1067.2" font-family="Courier,monospace" font-size="11.00">Angle</text>
</g>
<!-- \\Jcupitt\\Vips\\ImageType -->
<g id="node18" class="node"><title>\\Jcupitt\\Vips\\ImageType</title>
<polygon fill="none" stroke="black" points="278.393,-1040 194.393,-1040 194.393,-1004 278.393,-1004 278.393,-1040"/>
<text text-anchor="start" x="202.393" y="-1025.2" font-family="Courier,monospace" font-size="11.00">«abstract»</text>
<text text-anchor="start" x="205.893" y="-1013.2" font-family="Courier,monospace" font-size="11.00">ImageType</text>
</g>
<!-- \\Jcupitt\\Vips\\DemandStyle -->
<g id="node19" class="node"><title>\\Jcupitt\\Vips\\DemandStyle</title>
<polygon fill="none" stroke="black" points="281.893,-986 190.893,-986 190.893,-950 281.893,-950 281.893,-986"/>
<text text-anchor="start" x="202.393" y="-971.2" font-family="Courier,monospace" font-size="11.00">«abstract»</text>
<text text-anchor="start" x="198.893" y="-959.2" font-family="Courier,monospace" font-size="11.00">DemandStyle</text>
</g>
<!-- \\Jcupitt\\Vips\\Saveable -->
<g id="node20" class="node"><title>\\Jcupitt\\Vips\\Saveable</title>
<polygon fill="none" stroke="black" points="278.393,-932 194.393,-932 194.393,-896 278.393,-896 278.393,-932"/>
<text text-anchor="start" x="202.393" y="-917.2" font-family="Courier,monospace" font-size="11.00">«abstract»</text>
<text text-anchor="start" x="208.893" y="-905.2" font-family="Courier,monospace" font-size="11.00">Saveable</text>
</g>
<!-- \\Jcupitt\\Vips\\ForeignDzContainer -->
<g id="node21" class="node"><title>\\Jcupitt\\Vips\\ForeignDzContainer</title>
<polygon fill="none" stroke="black" points="305.393,-878 167.393,-878 167.393,-842 305.393,-842 305.393,-878"/>
<text text-anchor="start" x="202.393" y="-863.2" font-family="Courier,monospace" font-size="11.00">«abstract»</text>
<text text-anchor="start" x="175.393" y="-851.2" font-family="Courier,monospace" font-size="11.00">ForeignDzContainer</text>
</g>
<!-- \\Jcupitt\\Vips\\Extend -->
<g id="node22" class="node"><title>\\Jcupitt\\Vips\\Extend</title>
<polygon fill="none" stroke="black" points="278.393,-824 194.393,-824 194.393,-788 278.393,-788 278.393,-824"/>
<text text-anchor="start" x="202.393" y="-809.2" font-family="Courier,monospace" font-size="11.00">«abstract»</text>
<text text-anchor="start" x="215.893" y="-797.2" font-family="Courier,monospace" font-size="11.00">Extend</text>
</g>
<!-- \\Jcupitt\\Vips\\PCS -->
<g id="node23" class="node"><title>\\Jcupitt\\Vips\\PCS</title>
<polygon fill="none" stroke="black" points="278.393,-770 194.393,-770 194.393,-734 278.393,-734 278.393,-770"/>
<text text-anchor="start" x="202.393" y="-755.2" font-family="Courier,monospace" font-size="11.00">«abstract»</text>
<text text-anchor="start" x="225.893" y="-743.2" font-family="Courier,monospace" font-size="11.00">PCS</text>
</g>
<!-- \\Jcupitt\\Vips\\ForeignDzLayout -->
<g id="node24" class="node"><title>\\Jcupitt\\Vips\\ForeignDzLayout</title>
<polygon fill="none" stroke="black" points="295.393,-716 177.393,-716 177.393,-680 295.393,-680 295.393,-716"/>
<text text-anchor="start" x="202.393" y="-701.2" font-family="Courier,monospace" font-size="11.00">«abstract»</text>
<text text-anchor="start" x="185.393" y="-689.2" font-family="Courier,monospace" font-size="11.00">ForeignDzLayout</text>
</g>
<!-- \\Jcupitt\\Vips\\OperationRound -->
<g id="node25" class="node"><title>\\Jcupitt\\Vips\\OperationRound</title>
<polygon fill="none" stroke="black" points="291.893,-662 180.893,-662 180.893,-626 291.893,-626 291.893,-662"/>
<text text-anchor="start" x="202.393" y="-647.2" font-family="Courier,monospace" font-size="11.00">«abstract»</text>
<text text-anchor="start" x="188.893" y="-635.2" font-family="Courier,monospace" font-size="11.00">OperationRound</text>
</g>
<!-- \\Jcupitt\\Vips\\Exception -->
<g id="node26" class="node"><title>\\Jcupitt\\Vips\\Exception</title>
<polygon fill="none" stroke="black" points="274.893,-608 197.893,-608 197.893,-572 274.893,-572 274.893,-608"/>
<text text-anchor="middle" x="236.393" y="-587.2" font-family="Courier,monospace" font-size="11.00">Exception</text>
</g>
<!-- \\Exception -->
<g id="node37" class="node"><title>\\Exception</title>
<ellipse fill="none" stroke="black" cx="40.9464" cy="-590" rx="40.8928" ry="18"/>
<text text-anchor="middle" x="40.9464" y="-586.3" font-family="Times,serif" font-size="14.00" fill="gray">xception</text>
</g>
<!-- \\Jcupitt\\Vips\\Exception&#45;&gt;\\Exception -->
<g id="edge1" class="edge"><title>\\Jcupitt\\Vips\\Exception&#45;&gt;\\Exception</title>
<path fill="none" stroke="black" d="M197.635,-590C167.573,-590 125.221,-590 92.2774,-590"/>
<polygon fill="none" stroke="black" points="91.9397,-586.5 81.9397,-590 91.9396,-593.5 91.9397,-586.5"/>
</g>
<!-- \\Jcupitt\\Vips\\Access -->
<g id="node27" class="node"><title>\\Jcupitt\\Vips\\Access</title>
<polygon fill="none" stroke="black" points="278.393,-554 194.393,-554 194.393,-518 278.393,-518 278.393,-554"/>
<text text-anchor="start" x="202.393" y="-539.2" font-family="Courier,monospace" font-size="11.00">«abstract»</text>
<text text-anchor="start" x="215.893" y="-527.2" font-family="Courier,monospace" font-size="11.00">Access</text>
</g>
<!-- \\Jcupitt\\Vips\\OperationMath -->
<g id="node28" class="node"><title>\\Jcupitt\\Vips\\OperationMath</title>
<polygon fill="none" stroke="black" points="288.393,-500 184.393,-500 184.393,-464 288.393,-464 288.393,-500"/>
<text text-anchor="start" x="202.393" y="-485.2" font-family="Courier,monospace" font-size="11.00">«abstract»</text>
<text text-anchor="start" x="192.393" y="-473.2" font-family="Courier,monospace" font-size="11.00">OperationMath</text>
</g>
<!-- \\Jcupitt\\Vips\\Combine -->
<g id="node29" class="node"><title>\\Jcupitt\\Vips\\Combine</title>
<polygon fill="none" stroke="black" points="278.393,-446 194.393,-446 194.393,-410 278.393,-410 278.393,-446"/>
<text text-anchor="start" x="202.393" y="-431.2" font-family="Courier,monospace" font-size="11.00">«abstract»</text>
<text text-anchor="start" x="212.393" y="-419.2" font-family="Courier,monospace" font-size="11.00">Combine</text>
</g>
<!-- \\Jcupitt\\Vips\\Direction -->
<g id="node30" class="node"><title>\\Jcupitt\\Vips\\Direction</title>
<polygon fill="none" stroke="black" points="278.393,-392 194.393,-392 194.393,-356 278.393,-356 278.393,-392"/>
<text text-anchor="start" x="202.393" y="-377.2" font-family="Courier,monospace" font-size="11.00">«abstract»</text>
<text text-anchor="start" x="205.893" y="-365.2" font-family="Courier,monospace" font-size="11.00">Direction</text>
</g>
<!-- \\Jcupitt\\Vips\\OperationRelational -->
<g id="node31" class="node"><title>\\Jcupitt\\Vips\\OperationRelational</title>
<polygon fill="none" stroke="black" points="308.893,-338 163.893,-338 163.893,-302 308.893,-302 308.893,-338"/>
<text text-anchor="start" x="202.393" y="-323.2" font-family="Courier,monospace" font-size="11.00">«abstract»</text>
<text text-anchor="start" x="171.893" y="-311.2" font-family="Courier,monospace" font-size="11.00">OperationRelational</text>
</g>
<!-- \\Jcupitt\\Vips\\BandFormat -->
<g id="node32" class="node"><title>\\Jcupitt\\Vips\\BandFormat</title>
<polygon fill="none" stroke="black" points="278.393,-284 194.393,-284 194.393,-248 278.393,-248 278.393,-284"/>
<text text-anchor="start" x="202.393" y="-269.2" font-family="Courier,monospace" font-size="11.00">«abstract»</text>
<text text-anchor="start" x="202.393" y="-257.2" font-family="Courier,monospace" font-size="11.00">BandFormat</text>
</g>
<!-- \\Jcupitt\\Vips\\Interpretation -->
<g id="node33" class="node"><title>\\Jcupitt\\Vips\\Interpretation</title>
<polygon fill="none" stroke="black" points="291.893,-230 180.893,-230 180.893,-194 291.893,-194 291.893,-230"/>
<text text-anchor="start" x="202.393" y="-215.2" font-family="Courier,monospace" font-size="11.00">«abstract»</text>
<text text-anchor="start" x="188.893" y="-203.2" font-family="Courier,monospace" font-size="11.00">Interpretation</text>
</g>
<!-- \\Jcupitt\\Vips\\ForeignTiffResunit -->
<g id="node34" class="node"><title>\\Jcupitt\\Vips\\ForeignTiffResunit</title>
<polygon fill="none" stroke="black" points="305.393,-176 167.393,-176 167.393,-140 305.393,-140 305.393,-176"/>
<text text-anchor="start" x="202.393" y="-161.2" font-family="Courier,monospace" font-size="11.00">«abstract»</text>
<text text-anchor="start" x="175.393" y="-149.2" font-family="Courier,monospace" font-size="11.00">ForeignTiffResunit</text>
</g>
<!-- \\Jcupitt\\Vips\\Main -->
<g id="node35" class="node"><title>\\Jcupitt\\Vips\\Main</title>
<polygon fill="none" stroke="black" points="263.393,-122 209.393,-122 209.393,-86 263.393,-86 263.393,-122"/>
<text text-anchor="middle" x="236.393" y="-101.2" font-family="Courier,monospace" font-size="11.00">Main</text>
</g>
<!-- \\Jcupitt\\Vips\\ForeignDzDepth -->
<g id="node36" class="node"><title>\\Jcupitt\\Vips\\ForeignDzDepth</title>
<polygon fill="none" stroke="black" points="291.893,-68 180.893,-68 180.893,-32 291.893,-32 291.893,-68"/>
<text text-anchor="start" x="202.393" y="-53.2" font-family="Courier,monospace" font-size="11.00">«abstract»</text>
<text text-anchor="start" x="188.893" y="-41.2" font-family="Courier,monospace" font-size="11.00">ForeignDzDepth</text>
</g>
</g>
</svg>
