<?xml version="1.0" encoding="UTF-8" standalone="no"?>
<!DOCTYPE svg PUBLIC "-//W3C//DTD SVG 1.1//EN"
 "http://www.w3.org/Graphics/SVG/1.1/DTD/svg11.dtd">
<!-- Generated by graphviz version 2.38.0 (20140413.2041)
 -->
<!-- Title: G Pages: 1 -->
<svg width="416pt" height="2148pt"
 viewBox="0.00 0.00 416.49 2148.00" xmlns="http://www.w3.org/2000/svg" xmlns:xlink="http://www.w3.org/1999/xlink">
<g id="graph0" class="graph" transform="scale(1 1) rotate(0) translate(4 2144)">
<title>G</title>
<polygon fill="white" stroke="none" points="-4,4 -4,-2144 412.495,-2144 412.495,4 -4,4"/>
<g id="clust1" class="cluster"><title>cluster_Global</title>
<path fill="none" stroke="gray" d="M20,-98C20,-98 388.495,-98 388.495,-98 394.495,-98 400.495,-104 400.495,-110 400.495,-110 400.495,-2120 400.495,-2120 400.495,-2126 394.495,-2132 388.495,-2132 388.495,-2132 20,-2132 20,-2132 14,-2132 8,-2126 8,-2120 8,-2120 8,-110 8,-110 8,-104 14,-98 20,-98"/>
<text text-anchor="middle" x="204.247" y="-2119.2" font-family="Times,serif" font-size="11.00" fill="gray">Global</text>
</g>
<g id="clust2" class="cluster"><title>cluster_\Jcupitt</title>
<path fill="none" stroke="gray" d="M28,-106C28,-106 380.495,-106 380.495,-106 386.495,-106 392.495,-112 392.495,-118 392.495,-118 392.495,-2092 392.495,-2092 392.495,-2098 386.495,-2104 380.495,-2104 380.495,-2104 28,-2104 28,-2104 22,-2104 16,-2098 16,-2092 16,-2092 16,-118 16,-118 16,-112 22,-106 28,-106"/>
<text text-anchor="middle" x="204.247" y="-2091.2" font-family="Times,serif" font-size="11.00" fill="gray">Jcupitt</text>
</g>
<g id="clust3" class="cluster"><title>cluster_\Jcupitt\Vips</title>
<path fill="none" stroke="gray" d="M36,-114C36,-114 372.495,-114 372.495,-114 378.495,-114 384.495,-120 384.495,-126 384.495,-126 384.495,-2064 384.495,-2064 384.495,-2070 378.495,-2076 372.495,-2076 372.495,-2076 36,-2076 36,-2076 30,-2076 24,-2070 24,-2064 24,-2064 24,-126 24,-126 24,-120 30,-114 36,-114"/>
<text text-anchor="middle" x="204.247" y="-2063.2" font-family="Times,serif" font-size="11.00" fill="gray">Vips</text>
</g>
<!-- \\Jcupitt\\Vips\\ForeignTiffCompression -->
<g id="node1" class="node"><title>\\Jcupitt\\Vips\\ForeignTiffCompression</title>
<polygon fill="none" stroke="black" points="376.495,-2048 211.495,-2048 211.495,-2012 376.495,-2012 376.495,-2048"/>
<text text-anchor="start" x="259.995" y="-2033.2" font-family="Courier,monospace" font-size="11.00">«abstract»</text>
<text text-anchor="start" x="219.495" y="-2021.2" font-family="Courier,monospace" font-size="11.00">ForeignTiffCompression</text>
</g>
<!-- \\Jcupitt\\Vips\\Precision -->
<g id="node2" class="node"><title>\\Jcupitt\\Vips\\Precision</title>
<polygon fill="none" stroke="black" points="335.995,-1994 251.995,-1994 251.995,-1958 335.995,-1958 335.995,-1994"/>
<text text-anchor="start" x="259.995" y="-1979.2" font-family="Courier,monospace" font-size="11.00">«abstract»</text>
<text text-anchor="start" x="263.495" y="-1967.2" font-family="Courier,monospace" font-size="11.00">Precision</text>
</g>
<!-- \\Jcupitt\\Vips\\Kernel -->
<g id="node3" class="node"><title>\\Jcupitt\\Vips\\Kernel</title>
<polygon fill="none" stroke="black" points="335.995,-1940 251.995,-1940 251.995,-1904 335.995,-1904 335.995,-1940"/>
<text text-anchor="start" x="259.995" y="-1925.2" font-family="Courier,monospace" font-size="11.00">«abstract»</text>
<text text-anchor="start" x="273.495" y="-1913.2" font-family="Courier,monospace" font-size="11.00">Kernel</text>
</g>
<!-- \\Jcupitt\\Vips\\Token -->
<g id="node4" class="node"><title>\\Jcupitt\\Vips\\Token</title>
<polygon fill="none" stroke="black" points="335.995,-1886 251.995,-1886 251.995,-1850 335.995,-1850 335.995,-1886"/>
<text text-anchor="start" x="259.995" y="-1871.2" font-family="Courier,monospace" font-size="11.00">«abstract»</text>
<text text-anchor="start" x="276.995" y="-1859.2" font-family="Courier,monospace" font-size="11.00">Token</text>
</g>
<!-- \\Jcupitt\\Vips\\OperationComplex -->
<g id="node5" class="node"><title>\\Jcupitt\\Vips\\OperationComplex</title>
<polygon fill="none" stroke="black" points="356.495,-1832 231.495,-1832 231.495,-1796 356.495,-1796 356.495,-1832"/>
<text text-anchor="start" x="259.995" y="-1817.2" font-family="Courier,monospace" font-size="11.00">«abstract»</text>
<text text-anchor="start" x="239.495" y="-1805.2" font-family="Courier,monospace" font-size="11.00">OperationComplex</text>
</g>
<!-- \\Jcupitt\\Vips\\ImageAutodoc -->
<g id="node6" class="node"><title>\\Jcupitt\\Vips\\ImageAutodoc</title>
<polygon fill="none" stroke="black" points="130,-212 32,-212 32,-176 130,-176 130,-212"/>
<text text-anchor="start" x="47" y="-197.2" font-family="Courier,monospace" font-size="11.00">«abstract»</text>
<text text-anchor="start" x="40" y="-185.2" font-family="Courier,monospace" font-size="11.00">ImageAutodoc</text>
</g>
<!-- \\Jcupitt\\Vips\\Angle45 -->
<g id="node7" class="node"><title>\\Jcupitt\\Vips\\Angle45</title>
<polygon fill="none" stroke="black" points="335.995,-1778 251.995,-1778 251.995,-1742 335.995,-1742 335.995,-1778"/>
<text text-anchor="start" x="259.995" y="-1763.2" font-family="Courier,monospace" font-size="11.00">«abstract»</text>
<text text-anchor="start" x="269.995" y="-1751.2" font-family="Courier,monospace" font-size="11.00">Angle45</text>
</g>
<!-- \\Jcupitt\\Vips\\Intent -->
<g id="node8" class="node"><title>\\Jcupitt\\Vips\\Intent</title>
<polygon fill="none" stroke="black" points="335.995,-1724 251.995,-1724 251.995,-1688 335.995,-1688 335.995,-1724"/>
<text text-anchor="start" x="259.995" y="-1709.2" font-family="Courier,monospace" font-size="11.00">«abstract»</text>
<text text-anchor="start" x="273.495" y="-1697.2" font-family="Courier,monospace" font-size="11.00">Intent</text>
</g>
<!-- \\Jcupitt\\Vips\\Align -->
<g id="node9" class="node"><title>\\Jcupitt\\Vips\\Align</title>
<polygon fill="none" stroke="black" points="335.995,-1670 251.995,-1670 251.995,-1634 335.995,-1634 335.995,-1670"/>
<text text-anchor="start" x="259.995" y="-1655.2" font-family="Courier,monospace" font-size="11.00">«abstract»</text>
<text text-anchor="start" x="276.995" y="-1643.2" font-family="Courier,monospace" font-size="11.00">Align</text>
</g>
<!-- \\Jcupitt\\Vips\\OperationComplexget -->
<g id="node10" class="node"><title>\\Jcupitt\\Vips\\OperationComplexget</title>
<polygon fill="none" stroke="black" points="366.495,-1616 221.495,-1616 221.495,-1580 366.495,-1580 366.495,-1616"/>
<text text-anchor="start" x="259.995" y="-1601.2" font-family="Courier,monospace" font-size="11.00">«abstract»</text>
<text text-anchor="start" x="229.495" y="-1589.2" font-family="Courier,monospace" font-size="11.00">OperationComplexget</text>
</g>
<!-- \\Jcupitt\\Vips\\CombineMode -->
<g id="node11" class="node"><title>\\Jcupitt\\Vips\\CombineMode</title>
<polygon fill="none" stroke="black" points="339.495,-1562 248.495,-1562 248.495,-1526 339.495,-1526 339.495,-1562"/>
<text text-anchor="start" x="259.995" y="-1547.2" font-family="Courier,monospace" font-size="11.00">«abstract»</text>
<text text-anchor="start" x="256.495" y="-1535.2" font-family="Courier,monospace" font-size="11.00">CombineMode</text>
</g>
<!-- \\Jcupitt\\Vips\\OperationComplex2 -->
<g id="node12" class="node"><title>\\Jcupitt\\Vips\\OperationComplex2</title>
<polygon fill="none" stroke="black" points="359.495,-1508 228.495,-1508 228.495,-1472 359.495,-1472 359.495,-1508"/>
<text text-anchor="start" x="259.995" y="-1493.2" font-family="Courier,monospace" font-size="11.00">«abstract»</text>
<text text-anchor="start" x="236.495" y="-1481.2" font-family="Courier,monospace" font-size="11.00">OperationComplex2</text>
</g>
<!-- \\Jcupitt\\Vips\\OperationMorphology -->
<g id="node13" class="node"><title>\\Jcupitt\\Vips\\OperationMorphology</title>
<polygon fill="none" stroke="black" points="366.495,-1454 221.495,-1454 221.495,-1418 366.495,-1418 366.495,-1454"/>
<text text-anchor="start" x="259.995" y="-1439.2" font-family="Courier,monospace" font-size="11.00">«abstract»</text>
<text text-anchor="start" x="229.495" y="-1427.2" font-family="Courier,monospace" font-size="11.00">OperationMorphology</text>
</g>
<!-- \\Jcupitt\\Vips\\ForeignTiffPredictor -->
<g id="node14" class="node"><title>\\Jcupitt\\Vips\\ForeignTiffPredictor</title>
<polygon fill="none" stroke="black" points="369.995,-1400 217.995,-1400 217.995,-1364 369.995,-1364 369.995,-1400"/>
<text text-anchor="start" x="259.995" y="-1385.2" font-family="Courier,monospace" font-size="11.00">«abstract»</text>
<text text-anchor="start" x="225.995" y="-1373.2" font-family="Courier,monospace" font-size="11.00">ForeignTiffPredictor</text>
</g>
<!-- \\Jcupitt\\Vips\\Coding -->
<g id="node15" class="node"><title>\\Jcupitt\\Vips\\Coding</title>
<polygon fill="none" stroke="black" points="335.995,-1346 251.995,-1346 251.995,-1310 335.995,-1310 335.995,-1346"/>
<text text-anchor="start" x="259.995" y="-1331.2" font-family="Courier,monospace" font-size="11.00">«abstract»</text>
<text text-anchor="start" x="273.495" y="-1319.2" font-family="Courier,monospace" font-size="11.00">Coding</text>
</g>
<!-- \\Jcupitt\\Vips\\OperationMath2 -->
<g id="node16" class="node"><title>\\Jcupitt\\Vips\\OperationMath2</title>
<polygon fill="none" stroke="black" points="349.495,-1292 238.495,-1292 238.495,-1256 349.495,-1256 349.495,-1292"/>
<text text-anchor="start" x="259.995" y="-1277.2" font-family="Courier,monospace" font-size="11.00">«abstract»</text>
<text text-anchor="start" x="246.495" y="-1265.2" font-family="Courier,monospace" font-size="11.00">OperationMath2</text>
</g>
<!-- \\Jcupitt\\Vips\\Angle -->
<g id="node17" class="node"><title>\\Jcupitt\\Vips\\Angle</title>
<polygon fill="none" stroke="black" points="335.995,-1238 251.995,-1238 251.995,-1202 335.995,-1202 335.995,-1238"/>
<text text-anchor="start" x="259.995" y="-1223.2" font-family="Courier,monospace" font-size="11.00">«abstract»</text>
<text text-anchor="start" x="276.995" y="-1211.2" font-family="Courier,monospace" font-size="11.00">Angle</text>
</g>
<!-- \\Jcupitt\\Vips\\ImageType -->
<g id="node18" class="node"><title>\\Jcupitt\\Vips\\ImageType</title>
<polygon fill="none" stroke="black" points="335.995,-1184 251.995,-1184 251.995,-1148 335.995,-1148 335.995,-1184"/>
<text text-anchor="start" x="259.995" y="-1169.2" font-family="Courier,monospace" font-size="11.00">«abstract»</text>
<text text-anchor="start" x="263.495" y="-1157.2" font-family="Courier,monospace" font-size="11.00">ImageType</text>
</g>
<!-- \\Jcupitt\\Vips\\DemandStyle -->
<g id="node19" class="node"><title>\\Jcupitt\\Vips\\DemandStyle</title>
<polygon fill="none" stroke="black" points="339.495,-1130 248.495,-1130 248.495,-1094 339.495,-1094 339.495,-1130"/>
<text text-anchor="start" x="259.995" y="-1115.2" font-family="Courier,monospace" font-size="11.00">«abstract»</text>
<text text-anchor="start" x="256.495" y="-1103.2" font-family="Courier,monospace" font-size="11.00">DemandStyle</text>
</g>
<!-- \\Jcupitt\\Vips\\Saveable -->
<g id="node20" class="node"><title>\\Jcupitt\\Vips\\Saveable</title>
<polygon fill="none" stroke="black" points="335.995,-1076 251.995,-1076 251.995,-1040 335.995,-1040 335.995,-1076"/>
<text text-anchor="start" x="259.995" y="-1061.2" font-family="Courier,monospace" font-size="11.00">«abstract»</text>
<text text-anchor="start" x="266.495" y="-1049.2" font-family="Courier,monospace" font-size="11.00">Saveable</text>
</g>
<!-- \\Jcupitt\\Vips\\ForeignDzContainer -->
<g id="node21" class="node"><title>\\Jcupitt\\Vips\\ForeignDzContainer</title>
<polygon fill="none" stroke="black" points="362.995,-1022 224.995,-1022 224.995,-986 362.995,-986 362.995,-1022"/>
<text text-anchor="start" x="259.995" y="-1007.2" font-family="Courier,monospace" font-size="11.00">«abstract»</text>
<text text-anchor="start" x="232.995" y="-995.2" font-family="Courier,monospace" font-size="11.00">ForeignDzContainer</text>
</g>
<!-- \\Jcupitt\\Vips\\Extend -->
<g id="node22" class="node"><title>\\Jcupitt\\Vips\\Extend</title>
<polygon fill="none" stroke="black" points="335.995,-968 251.995,-968 251.995,-932 335.995,-932 335.995,-968"/>
<text text-anchor="start" x="259.995" y="-953.2" font-family="Courier,monospace" font-size="11.00">«abstract»</text>
<text text-anchor="start" x="273.495" y="-941.2" font-family="Courier,monospace" font-size="11.00">Extend</text>
</g>
<!-- \\Jcupitt\\Vips\\PCS -->
<g id="node23" class="node"><title>\\Jcupitt\\Vips\\PCS</title>
<polygon fill="none" stroke="black" points="335.995,-914 251.995,-914 251.995,-878 335.995,-878 335.995,-914"/>
<text text-anchor="start" x="259.995" y="-899.2" font-family="Courier,monospace" font-size="11.00">«abstract»</text>
<text text-anchor="start" x="283.495" y="-887.2" font-family="Courier,monospace" font-size="11.00">PCS</text>
</g>
<!-- \\Jcupitt\\Vips\\ForeignDzLayout -->
<g id="node24" class="node"><title>\\Jcupitt\\Vips\\ForeignDzLayout</title>
<polygon fill="none" stroke="black" points="352.995,-860 234.995,-860 234.995,-824 352.995,-824 352.995,-860"/>
<text text-anchor="start" x="259.995" y="-845.2" font-family="Courier,monospace" font-size="11.00">«abstract»</text>
<text text-anchor="start" x="242.995" y="-833.2" font-family="Courier,monospace" font-size="11.00">ForeignDzLayout</text>
</g>
<!-- \\Jcupitt\\Vips\\OperationRound -->
<g id="node25" class="node"><title>\\Jcupitt\\Vips\\OperationRound</title>
<polygon fill="none" stroke="black" points="349.495,-806 238.495,-806 238.495,-770 349.495,-770 349.495,-806"/>
<text text-anchor="start" x="259.995" y="-791.2" font-family="Courier,monospace" font-size="11.00">«abstract»</text>
<text text-anchor="start" x="246.495" y="-779.2" font-family="Courier,monospace" font-size="11.00">OperationRound</text>
</g>
<!-- \\Jcupitt\\Vips\\Exception -->
<g id="node26" class="node"><title>\\Jcupitt\\Vips\\Exception</title>
<polygon fill="none" stroke="black" points="332.495,-752 255.495,-752 255.495,-716 332.495,-716 332.495,-752"/>
<text text-anchor="middle" x="293.995" y="-731.2" font-family="Courier,monospace" font-size="11.00">Exception</text>
</g>
<!-- \\Exception -->
<g id="node38" class="node"><title>\\Exception</title>
<ellipse fill="none" stroke="black" cx="81" cy="-72" rx="40.8928" ry="18"/>
<text text-anchor="middle" x="81" y="-68.3" font-family="Times,serif" font-size="14.00" fill="gray">xception</text>
</g>
<!-- \\Jcupitt\\Vips\\Exception&#45;&gt;\\Exception -->
<g id="edge1" class="edge"><title>\\Jcupitt\\Vips\\Exception&#45;&gt;\\Exception</title>
<path fill="none" stroke="black" d="M255.095,-730.343C239.286,-726.828 222.157,-720.039 211.495,-707 42.3149,-500.109 279.96,-337.366 139.495,-110 134.553,-102.002 127.229,-95.333 119.449,-89.9317"/>
<polygon fill="none" stroke="black" points="121.248,-86.9284 110.92,-84.5649 117.52,-92.8531 121.248,-86.9284"/>
</g>
<!-- \\Jcupitt\\Vips\\Access -->
<g id="node27" class="node"><title>\\Jcupitt\\Vips\\Access</title>
<polygon fill="none" stroke="black" points="335.995,-698 251.995,-698 251.995,-662 335.995,-662 335.995,-698"/>
<text text-anchor="start" x="259.995" y="-683.2" font-family="Courier,monospace" font-size="11.00">«abstract»</text>
<text text-anchor="start" x="273.495" y="-671.2" font-family="Courier,monospace" font-size="11.00">Access</text>
</g>
<!-- \\Jcupitt\\Vips\\OperationMath -->
<g id="node28" class="node"><title>\\Jcupitt\\Vips\\OperationMath</title>
<polygon fill="none" stroke="black" points="345.995,-644 241.995,-644 241.995,-608 345.995,-608 345.995,-644"/>
<text text-anchor="start" x="259.995" y="-629.2" font-family="Courier,monospace" font-size="11.00">«abstract»</text>
<text text-anchor="start" x="249.995" y="-617.2" font-family="Courier,monospace" font-size="11.00">OperationMath</text>
</g>
<!-- \\Jcupitt\\Vips\\Combine -->
<g id="node29" class="node"><title>\\Jcupitt\\Vips\\Combine</title>
<polygon fill="none" stroke="black" points="335.995,-590 251.995,-590 251.995,-554 335.995,-554 335.995,-590"/>
<text text-anchor="start" x="259.995" y="-575.2" font-family="Courier,monospace" font-size="11.00">«abstract»</text>
<text text-anchor="start" x="269.995" y="-563.2" font-family="Courier,monospace" font-size="11.00">Combine</text>
</g>
<!-- \\Jcupitt\\Vips\\Direction -->
<g id="node30" class="node"><title>\\Jcupitt\\Vips\\Direction</title>
<polygon fill="none" stroke="black" points="335.995,-536 251.995,-536 251.995,-500 335.995,-500 335.995,-536"/>
<text text-anchor="start" x="259.995" y="-521.2" font-family="Courier,monospace" font-size="11.00">«abstract»</text>
<text text-anchor="start" x="263.495" y="-509.2" font-family="Courier,monospace" font-size="11.00">Direction</text>
</g>
<!-- \\Jcupitt\\Vips\\OperationRelational -->
<g id="node31" class="node"><title>\\Jcupitt\\Vips\\OperationRelational</title>
<polygon fill="none" stroke="black" points="366.495,-482 221.495,-482 221.495,-446 366.495,-446 366.495,-482"/>
<text text-anchor="start" x="259.995" y="-467.2" font-family="Courier,monospace" font-size="11.00">«abstract»</text>
<text text-anchor="start" x="229.495" y="-455.2" font-family="Courier,monospace" font-size="11.00">OperationRelational</text>
</g>
<!-- \\Jcupitt\\Vips\\BandFormat -->
<g id="node32" class="node"><title>\\Jcupitt\\Vips\\BandFormat</title>
<polygon fill="none" stroke="black" points="335.995,-428 251.995,-428 251.995,-392 335.995,-392 335.995,-428"/>
<text text-anchor="start" x="259.995" y="-413.2" font-family="Courier,monospace" font-size="11.00">«abstract»</text>
<text text-anchor="start" x="259.995" y="-401.2" font-family="Courier,monospace" font-size="11.00">BandFormat</text>
</g>
<!-- \\Jcupitt\\Vips\\Interpretation -->
<g id="node33" class="node"><title>\\Jcupitt\\Vips\\Interpretation</title>
<polygon fill="none" stroke="black" points="349.495,-374 238.495,-374 238.495,-338 349.495,-338 349.495,-374"/>
<text text-anchor="start" x="259.995" y="-359.2" font-family="Courier,monospace" font-size="11.00">«abstract»</text>
<text text-anchor="start" x="246.495" y="-347.2" font-family="Courier,monospace" font-size="11.00">Interpretation</text>
</g>
<!-- \\Jcupitt\\Vips\\ForeignTiffResunit -->
<g id="node34" class="node"><title>\\Jcupitt\\Vips\\ForeignTiffResunit</title>
<polygon fill="none" stroke="black" points="362.995,-320 224.995,-320 224.995,-284 362.995,-284 362.995,-320"/>
<text text-anchor="start" x="259.995" y="-305.2" font-family="Courier,monospace" font-size="11.00">«abstract»</text>
<text text-anchor="start" x="232.995" y="-293.2" font-family="Courier,monospace" font-size="11.00">ForeignTiffResunit</text>
</g>
<!-- \\Jcupitt\\Vips\\Main -->
<g id="node35" class="node"><title>\\Jcupitt\\Vips\\Main</title>
<polygon fill="none" stroke="black" points="320.995,-266 266.995,-266 266.995,-230 320.995,-230 320.995,-266"/>
<text text-anchor="middle" x="293.995" y="-245.2" font-family="Courier,monospace" font-size="11.00">Main</text>
</g>
<!-- \\Jcupitt\\Vips\\Image -->
<g id="node36" class="node"><title>\\Jcupitt\\Vips\\Image</title>
<polygon fill="none" stroke="black" points="320.995,-212 266.995,-212 266.995,-176 320.995,-176 320.995,-212"/>
<text text-anchor="middle" x="293.995" y="-191.2" font-family="Courier,monospace" font-size="11.00">Image</text>
</g>
<!-- \\Jcupitt\\Vips\\Image&#45;&gt;\\Jcupitt\\Vips\\ImageAutodoc -->
<g id="edge2" class="edge"><title>\\Jcupitt\\Vips\\Image&#45;&gt;\\Jcupitt\\Vips\\ImageAutodoc</title>
<path fill="none" stroke="black" d="M266.699,-194C235.332,-194 181.952,-194 140.622,-194"/>
<polygon fill="none" stroke="black" points="140.394,-190.5 130.394,-194 140.394,-197.5 140.394,-190.5"/>
</g>
<!-- \\ArrayAccess -->
<g id="node39" class="node"><title>\\ArrayAccess</title>
<ellipse fill="none" stroke="black" cx="81" cy="-18" rx="58.4896" ry="18"/>
<text text-anchor="middle" x="81" y="-14.3" font-family="Times,serif" font-size="14.00" fill="gray">\ArrayAccess</text>
</g>
<!-- \\Jcupitt\\Vips\\Image&#45;&gt;\\ArrayAccess -->
<g id="edge3" class="edge"><title>\\Jcupitt\\Vips\\Image&#45;&gt;\\ArrayAccess</title>
<path fill="none" stroke="black" stroke-dasharray="1,5" d="M266.839,-190.232C249.612,-186.652 227.389,-179.821 211.495,-167 162.49,-127.471 186.06,-87.3764 139.495,-45 136.147,-41.9534 132.395,-39.1896 128.454,-36.6964"/>
<polygon fill="none" stroke="black" points="130.031,-33.567 119.608,-31.6653 126.57,-39.6517 130.031,-33.567"/>
</g>
<!-- \\Jcupitt\\Vips\\ForeignDzDepth -->
<g id="node37" class="node"><title>\\Jcupitt\\Vips\\ForeignDzDepth</title>
<polygon fill="none" stroke="black" points="349.495,-158 238.495,-158 238.495,-122 349.495,-122 349.495,-158"/>
<text text-anchor="start" x="259.995" y="-143.2" font-family="Courier,monospace" font-size="11.00">«abstract»</text>
<text text-anchor="start" x="246.495" y="-131.2" font-family="Courier,monospace" font-size="11.00">ForeignDzDepth</text>
</g>
</g>
</svg>
