<?xml version="1.0" encoding="UTF-8" standalone="no"?>
<!DOCTYPE svg PUBLIC "-//W3C//DTD SVG 1.1//EN"
 "http://www.w3.org/Graphics/SVG/1.1/DTD/svg11.dtd">
<!-- Generated by graphviz version 2.38.0 (20140413.2041)
 -->
<!-- Title: G Pages: 1 -->
<svg width="467pt" height="2418pt"
 viewBox="0.00 0.00 466.78 2418.00" xmlns="http://www.w3.org/2000/svg" xmlns:xlink="http://www.w3.org/1999/xlink">
<g id="graph0" class="graph" transform="scale(1 1) rotate(0) translate(4 2414)">
<title>G</title>
<polygon fill="white" stroke="none" points="-4,4 -4,-2414 462.783,-2414 462.783,4 -4,4"/>
<g id="clust1" class="cluster"><title>cluster_Global</title>
<path fill="none" stroke="gray" d="M33.8916,-152C33.8916,-152 438.783,-152 438.783,-152 444.783,-152 450.783,-158 450.783,-164 450.783,-164 450.783,-2390 450.783,-2390 450.783,-2396 444.783,-2402 438.783,-2402 438.783,-2402 33.8916,-2402 33.8916,-2402 27.8916,-2402 21.8916,-2396 21.8916,-2390 21.8916,-2390 21.8916,-164 21.8916,-164 21.8916,-158 27.8916,-152 33.8916,-152"/>
<text text-anchor="middle" x="236.337" y="-2389.2" font-family="Times,serif" font-size="11.00" fill="gray">Global</text>
</g>
<g id="clust2" class="cluster"><title>cluster_\Jcupitt</title>
<path fill="none" stroke="gray" d="M41.8916,-160C41.8916,-160 430.783,-160 430.783,-160 436.783,-160 442.783,-166 442.783,-172 442.783,-172 442.783,-2362 442.783,-2362 442.783,-2368 436.783,-2374 430.783,-2374 430.783,-2374 41.8916,-2374 41.8916,-2374 35.8916,-2374 29.8916,-2368 29.8916,-2362 29.8916,-2362 29.8916,-172 29.8916,-172 29.8916,-166 35.8916,-160 41.8916,-160"/>
<text text-anchor="middle" x="236.337" y="-2361.2" font-family="Times,serif" font-size="11.00" fill="gray">Jcupitt</text>
</g>
<g id="clust3" class="cluster"><title>cluster_\Jcupitt\Vips</title>
<path fill="none" stroke="gray" d="M49.8916,-168C49.8916,-168 422.783,-168 422.783,-168 428.783,-168 434.783,-174 434.783,-180 434.783,-180 434.783,-2334 434.783,-2334 434.783,-2340 428.783,-2346 422.783,-2346 422.783,-2346 49.8916,-2346 49.8916,-2346 43.8916,-2346 37.8916,-2340 37.8916,-2334 37.8916,-2334 37.8916,-180 37.8916,-180 37.8916,-174 43.8916,-168 49.8916,-168"/>
<text text-anchor="middle" x="236.337" y="-2333.2" font-family="Times,serif" font-size="11.00" fill="gray">Vips</text>
</g>
<!-- \\Jcupitt\\Vips\\ForeignTiffCompression -->
<g id="node1" class="node"><title>\\Jcupitt\\Vips\\ForeignTiffCompression</title>
<polygon fill="none" stroke="black" points="426.783,-2318 261.783,-2318 261.783,-2282 426.783,-2282 426.783,-2318"/>
<text text-anchor="start" x="310.283" y="-2303.2" font-family="Courier,monospace" font-size="11.00">«abstract»</text>
<text text-anchor="start" x="269.783" y="-2291.2" font-family="Courier,monospace" font-size="11.00">ForeignTiffCompression</text>
</g>
<!-- \\Jcupitt\\Vips\\Precision -->
<g id="node2" class="node"><title>\\Jcupitt\\Vips\\Precision</title>
<polygon fill="none" stroke="black" points="386.283,-2264 302.283,-2264 302.283,-2228 386.283,-2228 386.283,-2264"/>
<text text-anchor="start" x="310.283" y="-2249.2" font-family="Courier,monospace" font-size="11.00">«abstract»</text>
<text text-anchor="start" x="313.783" y="-2237.2" font-family="Courier,monospace" font-size="11.00">Precision</text>
</g>
<!-- \\Jcupitt\\Vips\\Kernel -->
<g id="node3" class="node"><title>\\Jcupitt\\Vips\\Kernel</title>
<polygon fill="none" stroke="black" points="386.283,-2210 302.283,-2210 302.283,-2174 386.283,-2174 386.283,-2210"/>
<text text-anchor="start" x="310.283" y="-2195.2" font-family="Courier,monospace" font-size="11.00">«abstract»</text>
<text text-anchor="start" x="323.783" y="-2183.2" font-family="Courier,monospace" font-size="11.00">Kernel</text>
</g>
<!-- \\Jcupitt\\Vips\\Token -->
<g id="node4" class="node"><title>\\Jcupitt\\Vips\\Token</title>
<polygon fill="none" stroke="black" points="386.283,-2156 302.283,-2156 302.283,-2120 386.283,-2120 386.283,-2156"/>
<text text-anchor="start" x="310.283" y="-2141.2" font-family="Courier,monospace" font-size="11.00">«abstract»</text>
<text text-anchor="start" x="327.283" y="-2129.2" font-family="Courier,monospace" font-size="11.00">Token</text>
</g>
<!-- \\Jcupitt\\Vips\\OperationComplex -->
<g id="node5" class="node"><title>\\Jcupitt\\Vips\\OperationComplex</title>
<polygon fill="none" stroke="black" points="406.783,-2102 281.783,-2102 281.783,-2066 406.783,-2066 406.783,-2102"/>
<text text-anchor="start" x="310.283" y="-2087.2" font-family="Courier,monospace" font-size="11.00">«abstract»</text>
<text text-anchor="start" x="289.783" y="-2075.2" font-family="Courier,monospace" font-size="11.00">OperationComplex</text>
</g>
<!-- \\Jcupitt\\Vips\\ImageAutodoc -->
<g id="node6" class="node"><title>\\Jcupitt\\Vips\\ImageAutodoc</title>
<polygon fill="none" stroke="black" points="143.892,-320 45.8916,-320 45.8916,-284 143.892,-284 143.892,-320"/>
<text text-anchor="start" x="60.8916" y="-305.2" font-family="Courier,monospace" font-size="11.00">«abstract»</text>
<text text-anchor="start" x="53.8916" y="-293.2" font-family="Courier,monospace" font-size="11.00">ImageAutodoc</text>
</g>
<!-- \\Jcupitt\\Vips\\Angle45 -->
<g id="node7" class="node"><title>\\Jcupitt\\Vips\\Angle45</title>
<polygon fill="none" stroke="black" points="386.283,-2048 302.283,-2048 302.283,-2012 386.283,-2012 386.283,-2048"/>
<text text-anchor="start" x="310.283" y="-2033.2" font-family="Courier,monospace" font-size="11.00">«abstract»</text>
<text text-anchor="start" x="320.283" y="-2021.2" font-family="Courier,monospace" font-size="11.00">Angle45</text>
</g>
<!-- \\Jcupitt\\Vips\\Intent -->
<g id="node8" class="node"><title>\\Jcupitt\\Vips\\Intent</title>
<polygon fill="none" stroke="black" points="386.283,-1994 302.283,-1994 302.283,-1958 386.283,-1958 386.283,-1994"/>
<text text-anchor="start" x="310.283" y="-1979.2" font-family="Courier,monospace" font-size="11.00">«abstract»</text>
<text text-anchor="start" x="323.783" y="-1967.2" font-family="Courier,monospace" font-size="11.00">Intent</text>
</g>
<!-- \\Jcupitt\\Vips\\Align -->
<g id="node9" class="node"><title>\\Jcupitt\\Vips\\Align</title>
<polygon fill="none" stroke="black" points="386.283,-1940 302.283,-1940 302.283,-1904 386.283,-1904 386.283,-1940"/>
<text text-anchor="start" x="310.283" y="-1925.2" font-family="Courier,monospace" font-size="11.00">«abstract»</text>
<text text-anchor="start" x="327.283" y="-1913.2" font-family="Courier,monospace" font-size="11.00">Align</text>
</g>
<!-- \\Jcupitt\\Vips\\OperationComplexget -->
<g id="node10" class="node"><title>\\Jcupitt\\Vips\\OperationComplexget</title>
<polygon fill="none" stroke="black" points="416.783,-1886 271.783,-1886 271.783,-1850 416.783,-1850 416.783,-1886"/>
<text text-anchor="start" x="310.283" y="-1871.2" font-family="Courier,monospace" font-size="11.00">«abstract»</text>
<text text-anchor="start" x="279.783" y="-1859.2" font-family="Courier,monospace" font-size="11.00">OperationComplexget</text>
</g>
<!-- \\Jcupitt\\Vips\\CombineMode -->
<g id="node11" class="node"><title>\\Jcupitt\\Vips\\CombineMode</title>
<polygon fill="none" stroke="black" points="389.783,-1832 298.783,-1832 298.783,-1796 389.783,-1796 389.783,-1832"/>
<text text-anchor="start" x="310.283" y="-1817.2" font-family="Courier,monospace" font-size="11.00">«abstract»</text>
<text text-anchor="start" x="306.783" y="-1805.2" font-family="Courier,monospace" font-size="11.00">CombineMode</text>
</g>
<!-- \\Jcupitt\\Vips\\OperationComplex2 -->
<g id="node12" class="node"><title>\\Jcupitt\\Vips\\OperationComplex2</title>
<polygon fill="none" stroke="black" points="409.783,-1778 278.783,-1778 278.783,-1742 409.783,-1742 409.783,-1778"/>
<text text-anchor="start" x="310.283" y="-1763.2" font-family="Courier,monospace" font-size="11.00">«abstract»</text>
<text text-anchor="start" x="286.783" y="-1751.2" font-family="Courier,monospace" font-size="11.00">OperationComplex2</text>
</g>
<!-- \\Jcupitt\\Vips\\OperationMorphology -->
<g id="node13" class="node"><title>\\Jcupitt\\Vips\\OperationMorphology</title>
<polygon fill="none" stroke="black" points="416.783,-1724 271.783,-1724 271.783,-1688 416.783,-1688 416.783,-1724"/>
<text text-anchor="start" x="310.283" y="-1709.2" font-family="Courier,monospace" font-size="11.00">«abstract»</text>
<text text-anchor="start" x="279.783" y="-1697.2" font-family="Courier,monospace" font-size="11.00">OperationMorphology</text>
</g>
<!-- \\Jcupitt\\Vips\\ForeignTiffPredictor -->
<g id="node14" class="node"><title>\\Jcupitt\\Vips\\ForeignTiffPredictor</title>
<polygon fill="none" stroke="black" points="420.283,-1670 268.283,-1670 268.283,-1634 420.283,-1634 420.283,-1670"/>
<text text-anchor="start" x="310.283" y="-1655.2" font-family="Courier,monospace" font-size="11.00">«abstract»</text>
<text text-anchor="start" x="276.283" y="-1643.2" font-family="Courier,monospace" font-size="11.00">ForeignTiffPredictor</text>
</g>
<!-- \\Jcupitt\\Vips\\Coding -->
<g id="node15" class="node"><title>\\Jcupitt\\Vips\\Coding</title>
<polygon fill="none" stroke="black" points="386.283,-1616 302.283,-1616 302.283,-1580 386.283,-1580 386.283,-1616"/>
<text text-anchor="start" x="310.283" y="-1601.2" font-family="Courier,monospace" font-size="11.00">«abstract»</text>
<text text-anchor="start" x="323.783" y="-1589.2" font-family="Courier,monospace" font-size="11.00">Coding</text>
</g>
<!-- \\Jcupitt\\Vips\\OperationMath2 -->
<g id="node16" class="node"><title>\\Jcupitt\\Vips\\OperationMath2</title>
<polygon fill="none" stroke="black" points="399.783,-1562 288.783,-1562 288.783,-1526 399.783,-1526 399.783,-1562"/>
<text text-anchor="start" x="310.283" y="-1547.2" font-family="Courier,monospace" font-size="11.00">«abstract»</text>
<text text-anchor="start" x="296.783" y="-1535.2" font-family="Courier,monospace" font-size="11.00">OperationMath2</text>
</g>
<!-- \\Jcupitt\\Vips\\Angle -->
<g id="node17" class="node"><title>\\Jcupitt\\Vips\\Angle</title>
<polygon fill="none" stroke="black" points="386.283,-1508 302.283,-1508 302.283,-1472 386.283,-1472 386.283,-1508"/>
<text text-anchor="start" x="310.283" y="-1493.2" font-family="Courier,monospace" font-size="11.00">«abstract»</text>
<text text-anchor="start" x="327.283" y="-1481.2" font-family="Courier,monospace" font-size="11.00">Angle</text>
</g>
<!-- \\Jcupitt\\Vips\\ImageType -->
<g id="node18" class="node"><title>\\Jcupitt\\Vips\\ImageType</title>
<polygon fill="none" stroke="black" points="386.283,-1454 302.283,-1454 302.283,-1418 386.283,-1418 386.283,-1454"/>
<text text-anchor="start" x="310.283" y="-1439.2" font-family="Courier,monospace" font-size="11.00">«abstract»</text>
<text text-anchor="start" x="313.783" y="-1427.2" font-family="Courier,monospace" font-size="11.00">ImageType</text>
</g>
<!-- \\Jcupitt\\Vips\\DemandStyle -->
<g id="node19" class="node"><title>\\Jcupitt\\Vips\\DemandStyle</title>
<polygon fill="none" stroke="black" points="389.783,-1400 298.783,-1400 298.783,-1364 389.783,-1364 389.783,-1400"/>
<text text-anchor="start" x="310.283" y="-1385.2" font-family="Courier,monospace" font-size="11.00">«abstract»</text>
<text text-anchor="start" x="306.783" y="-1373.2" font-family="Courier,monospace" font-size="11.00">DemandStyle</text>
</g>
<!-- \\Jcupitt\\Vips\\Saveable -->
<g id="node20" class="node"><title>\\Jcupitt\\Vips\\Saveable</title>
<polygon fill="none" stroke="black" points="386.283,-1346 302.283,-1346 302.283,-1310 386.283,-1310 386.283,-1346"/>
<text text-anchor="start" x="310.283" y="-1331.2" font-family="Courier,monospace" font-size="11.00">«abstract»</text>
<text text-anchor="start" x="316.783" y="-1319.2" font-family="Courier,monospace" font-size="11.00">Saveable</text>
</g>
<!-- \\Jcupitt\\Vips\\ForeignDzContainer -->
<g id="node21" class="node"><title>\\Jcupitt\\Vips\\ForeignDzContainer</title>
<polygon fill="none" stroke="black" points="413.283,-1292 275.283,-1292 275.283,-1256 413.283,-1256 413.283,-1292"/>
<text text-anchor="start" x="310.283" y="-1277.2" font-family="Courier,monospace" font-size="11.00">«abstract»</text>
<text text-anchor="start" x="283.283" y="-1265.2" font-family="Courier,monospace" font-size="11.00">ForeignDzContainer</text>
</g>
<!-- \\Jcupitt\\Vips\\Extend -->
<g id="node22" class="node"><title>\\Jcupitt\\Vips\\Extend</title>
<polygon fill="none" stroke="black" points="386.283,-1238 302.283,-1238 302.283,-1202 386.283,-1202 386.283,-1238"/>
<text text-anchor="start" x="310.283" y="-1223.2" font-family="Courier,monospace" font-size="11.00">«abstract»</text>
<text text-anchor="start" x="323.783" y="-1211.2" font-family="Courier,monospace" font-size="11.00">Extend</text>
</g>
<!-- \\Jcupitt\\Vips\\PCS -->
<g id="node23" class="node"><title>\\Jcupitt\\Vips\\PCS</title>
<polygon fill="none" stroke="black" points="386.283,-1184 302.283,-1184 302.283,-1148 386.283,-1148 386.283,-1184"/>
<text text-anchor="start" x="310.283" y="-1169.2" font-family="Courier,monospace" font-size="11.00">«abstract»</text>
<text text-anchor="start" x="333.783" y="-1157.2" font-family="Courier,monospace" font-size="11.00">PCS</text>
</g>
<!-- \\Jcupitt\\Vips\\Config -->
<g id="node24" class="node"><title>\\Jcupitt\\Vips\\Config</title>
<polygon fill="none" stroke="black" points="372.783,-1130 315.783,-1130 315.783,-1094 372.783,-1094 372.783,-1130"/>
<text text-anchor="middle" x="344.283" y="-1109.2" font-family="Courier,monospace" font-size="11.00">Config</text>
</g>
<!-- \\Jcupitt\\Vips\\Utils -->
<g id="node25" class="node"><title>\\Jcupitt\\Vips\\Utils</title>
<polygon fill="none" stroke="black" points="371.283,-1076 317.283,-1076 317.283,-1040 371.283,-1040 371.283,-1076"/>
<text text-anchor="middle" x="344.283" y="-1055.2" font-family="Courier,monospace" font-size="11.00">Utils</text>
</g>
<!-- \\Jcupitt\\Vips\\ForeignDzLayout -->
<g id="node26" class="node"><title>\\Jcupitt\\Vips\\ForeignDzLayout</title>
<polygon fill="none" stroke="black" points="403.283,-1022 285.283,-1022 285.283,-986 403.283,-986 403.283,-1022"/>
<text text-anchor="start" x="310.283" y="-1007.2" font-family="Courier,monospace" font-size="11.00">«abstract»</text>
<text text-anchor="start" x="293.283" y="-995.2" font-family="Courier,monospace" font-size="11.00">ForeignDzLayout</text>
</g>
<!-- \\Jcupitt\\Vips\\OperationRound -->
<g id="node27" class="node"><title>\\Jcupitt\\Vips\\OperationRound</title>
<polygon fill="none" stroke="black" points="399.783,-968 288.783,-968 288.783,-932 399.783,-932 399.783,-968"/>
<text text-anchor="start" x="310.283" y="-953.2" font-family="Courier,monospace" font-size="11.00">«abstract»</text>
<text text-anchor="start" x="296.783" y="-941.2" font-family="Courier,monospace" font-size="11.00">OperationRound</text>
</g>
<!-- \\Jcupitt\\Vips\\Exception -->
<g id="node28" class="node"><title>\\Jcupitt\\Vips\\Exception</title>
<polygon fill="none" stroke="black" points="382.783,-914 305.783,-914 305.783,-878 382.783,-878 382.783,-914"/>
<text text-anchor="middle" x="344.283" y="-893.2" font-family="Courier,monospace" font-size="11.00">Exception</text>
</g>
<!-- \\Exception -->
<g id="node42" class="node"><title>\\Exception</title>
<ellipse fill="none" stroke="black" cx="94.8916" cy="-126" rx="40.8928" ry="18"/>
<text text-anchor="middle" x="94.8916" y="-122.3" font-family="Times,serif" font-size="14.00" fill="gray">xception</text>
</g>
<!-- \\Jcupitt\\Vips\\Exception&#45;&gt;\\Exception -->
<g id="edge1" class="edge"><title>\\Jcupitt\\Vips\\Exception&#45;&gt;\\Exception</title>
<path fill="none" stroke="black" d="M305.692,-892.526C289.744,-889.055 272.419,-882.252 261.783,-869 64.6364,-623.368 378.887,-415.876 189.783,-164 178.751,-149.306 161.082,-140.276 144.032,-134.735"/>
<polygon fill="none" stroke="black" points="144.699,-131.284 134.12,-131.859 142.749,-138.007 144.699,-131.284"/>
</g>
<!-- \\Jcupitt\\Vips\\Access -->
<g id="node29" class="node"><title>\\Jcupitt\\Vips\\Access</title>
<polygon fill="none" stroke="black" points="386.283,-860 302.283,-860 302.283,-824 386.283,-824 386.283,-860"/>
<text text-anchor="start" x="310.283" y="-845.2" font-family="Courier,monospace" font-size="11.00">«abstract»</text>
<text text-anchor="start" x="323.783" y="-833.2" font-family="Courier,monospace" font-size="11.00">Access</text>
</g>
<!-- \\Jcupitt\\Vips\\OperationMath -->
<g id="node30" class="node"><title>\\Jcupitt\\Vips\\OperationMath</title>
<polygon fill="none" stroke="black" points="396.283,-806 292.283,-806 292.283,-770 396.283,-770 396.283,-806"/>
<text text-anchor="start" x="310.283" y="-791.2" font-family="Courier,monospace" font-size="11.00">«abstract»</text>
<text text-anchor="start" x="300.283" y="-779.2" font-family="Courier,monospace" font-size="11.00">OperationMath</text>
</g>
<!-- \\Jcupitt\\Vips\\Combine -->
<g id="node31" class="node"><title>\\Jcupitt\\Vips\\Combine</title>
<polygon fill="none" stroke="black" points="386.283,-752 302.283,-752 302.283,-716 386.283,-716 386.283,-752"/>
<text text-anchor="start" x="310.283" y="-737.2" font-family="Courier,monospace" font-size="11.00">«abstract»</text>
<text text-anchor="start" x="320.283" y="-725.2" font-family="Courier,monospace" font-size="11.00">Combine</text>
</g>
<!-- \\Jcupitt\\Vips\\Direction -->
<g id="node32" class="node"><title>\\Jcupitt\\Vips\\Direction</title>
<polygon fill="none" stroke="black" points="386.283,-698 302.283,-698 302.283,-662 386.283,-662 386.283,-698"/>
<text text-anchor="start" x="310.283" y="-683.2" font-family="Courier,monospace" font-size="11.00">«abstract»</text>
<text text-anchor="start" x="313.783" y="-671.2" font-family="Courier,monospace" font-size="11.00">Direction</text>
</g>
<!-- \\Jcupitt\\Vips\\OperationRelational -->
<g id="node33" class="node"><title>\\Jcupitt\\Vips\\OperationRelational</title>
<polygon fill="none" stroke="black" points="416.783,-644 271.783,-644 271.783,-608 416.783,-608 416.783,-644"/>
<text text-anchor="start" x="310.283" y="-629.2" font-family="Courier,monospace" font-size="11.00">«abstract»</text>
<text text-anchor="start" x="279.783" y="-617.2" font-family="Courier,monospace" font-size="11.00">OperationRelational</text>
</g>
<!-- \\Jcupitt\\Vips\\BandFormat -->
<g id="node34" class="node"><title>\\Jcupitt\\Vips\\BandFormat</title>
<polygon fill="none" stroke="black" points="386.283,-590 302.283,-590 302.283,-554 386.283,-554 386.283,-590"/>
<text text-anchor="start" x="310.283" y="-575.2" font-family="Courier,monospace" font-size="11.00">«abstract»</text>
<text text-anchor="start" x="310.283" y="-563.2" font-family="Courier,monospace" font-size="11.00">BandFormat</text>
</g>
<!-- \\Jcupitt\\Vips\\Interpretation -->
<g id="node35" class="node"><title>\\Jcupitt\\Vips\\Interpretation</title>
<polygon fill="none" stroke="black" points="399.783,-536 288.783,-536 288.783,-500 399.783,-500 399.783,-536"/>
<text text-anchor="start" x="310.283" y="-521.2" font-family="Courier,monospace" font-size="11.00">«abstract»</text>
<text text-anchor="start" x="296.783" y="-509.2" font-family="Courier,monospace" font-size="11.00">Interpretation</text>
</g>
<!-- \\Jcupitt\\Vips\\Interesting -->
<g id="node36" class="node"><title>\\Jcupitt\\Vips\\Interesting</title>
<polygon fill="none" stroke="black" points="389.783,-482 298.783,-482 298.783,-446 389.783,-446 389.783,-482"/>
<text text-anchor="start" x="310.283" y="-467.2" font-family="Courier,monospace" font-size="11.00">«abstract»</text>
<text text-anchor="start" x="306.783" y="-455.2" font-family="Courier,monospace" font-size="11.00">Interesting</text>
</g>
<!-- \\Jcupitt\\Vips\\ForeignTiffResunit -->
<g id="node37" class="node"><title>\\Jcupitt\\Vips\\ForeignTiffResunit</title>
<polygon fill="none" stroke="black" points="413.283,-428 275.283,-428 275.283,-392 413.283,-392 413.283,-428"/>
<text text-anchor="start" x="310.283" y="-413.2" font-family="Courier,monospace" font-size="11.00">«abstract»</text>
<text text-anchor="start" x="283.283" y="-401.2" font-family="Courier,monospace" font-size="11.00">ForeignTiffResunit</text>
</g>
<!-- \\Jcupitt\\Vips\\Size -->
<g id="node38" class="node"><title>\\Jcupitt\\Vips\\Size</title>
<polygon fill="none" stroke="black" points="386.283,-374 302.283,-374 302.283,-338 386.283,-338 386.283,-374"/>
<text text-anchor="start" x="310.283" y="-359.2" font-family="Courier,monospace" font-size="11.00">«abstract»</text>
<text text-anchor="start" x="330.283" y="-347.2" font-family="Courier,monospace" font-size="11.00">Size</text>
</g>
<!-- \\Jcupitt\\Vips\\DebugLogger -->
<g id="node39" class="node"><title>\\Jcupitt\\Vips\\DebugLogger</title>
<polygon fill="none" stroke="black" points="389.783,-266 298.783,-266 298.783,-230 389.783,-230 389.783,-266"/>
<text text-anchor="middle" x="344.283" y="-245.2" font-family="Courier,monospace" font-size="11.00">DebugLogger</text>
</g>
<!-- \\Psr\\Log\\LoggerInterface -->
<g id="node43" class="node"><title>\\Psr\\Log\\LoggerInterface</title>
<ellipse fill="none" stroke="black" cx="94.8916" cy="-18" rx="94.7833" ry="18"/>
<text text-anchor="middle" x="94.8916" y="-14.3" font-family="Times,serif" font-size="14.00" fill="gray">\PsrLogLoggerInterface</text>
</g>
<!-- \\Jcupitt\\Vips\\DebugLogger&#45;&gt;\\Psr\\Log\\LoggerInterface -->
<g id="edge2" class="edge"><title>\\Jcupitt\\Vips\\DebugLogger&#45;&gt;\\Psr\\Log\\LoggerInterface</title>
<path fill="none" stroke="black" stroke-dasharray="1,5" d="M298.558,-240.608C285.441,-236.611 271.915,-230.461 261.783,-221 200.014,-163.318 252.691,-101.439 189.783,-45 185.254,-40.9366 180.15,-37.4818 174.722,-34.5448"/>
<polygon fill="none" stroke="black" points="175.859,-31.2097 165.325,-30.075 172.852,-37.5311 175.859,-31.2097"/>
</g>
<!-- \\Jcupitt\\Vips\\Image -->
<g id="node40" class="node"><title>\\Jcupitt\\Vips\\Image</title>
<polygon fill="none" stroke="black" points="371.283,-320 317.283,-320 317.283,-284 371.283,-284 371.283,-320"/>
<text text-anchor="middle" x="344.283" y="-299.2" font-family="Courier,monospace" font-size="11.00">Image</text>
</g>
<!-- \\Jcupitt\\Vips\\Image&#45;&gt;\\Jcupitt\\Vips\\ImageAutodoc -->
<g id="edge3" class="edge"><title>\\Jcupitt\\Vips\\Image&#45;&gt;\\Jcupitt\\Vips\\ImageAutodoc</title>
<path fill="none" stroke="black" d="M317.276,-302C278.779,-302 205.625,-302 153.965,-302"/>
<polygon fill="none" stroke="black" points="153.936,-298.5 143.936,-302 153.936,-305.5 153.936,-298.5"/>
</g>
<!-- \\ArrayAccess -->
<g id="node44" class="node"><title>\\ArrayAccess</title>
<ellipse fill="none" stroke="black" cx="94.8916" cy="-72" rx="58.4896" ry="18"/>
<text text-anchor="middle" x="94.8916" y="-68.3" font-family="Times,serif" font-size="14.00" fill="gray">\ArrayAccess</text>
</g>
<!-- \\Jcupitt\\Vips\\Image&#45;&gt;\\ArrayAccess -->
<g id="edge4" class="edge"><title>\\Jcupitt\\Vips\\Image&#45;&gt;\\ArrayAccess</title>
<path fill="none" stroke="black" stroke-dasharray="1,5" d="M317.262,-299.097C299.652,-295.886 276.926,-289.141 261.783,-275 200.014,-217.318 252.691,-155.439 189.783,-99 181.19,-91.2908 170.53,-85.7724 159.508,-81.8247"/>
<polygon fill="none" stroke="black" points="160.363,-78.4241 149.773,-78.7443 158.251,-85.098 160.363,-78.4241"/>
</g>
<!-- \\Jcupitt\\Vips\\ForeignDzDepth -->
<g id="node41" class="node"><title>\\Jcupitt\\Vips\\ForeignDzDepth</title>
<polygon fill="none" stroke="black" points="399.783,-212 288.783,-212 288.783,-176 399.783,-176 399.783,-212"/>
<text text-anchor="start" x="310.283" y="-197.2" font-family="Courier,monospace" font-size="11.00">«abstract»</text>
<text text-anchor="start" x="296.783" y="-185.2" font-family="Courier,monospace" font-size="11.00">ForeignDzDepth</text>
</g>
</g>
</svg>
