<?xml version="1.0" encoding="UTF-8" standalone="no"?>
<!DOCTYPE svg PUBLIC "-//W3C//DTD SVG 1.1//EN"
 "http://www.w3.org/Graphics/SVG/1.1/DTD/svg11.dtd">
<!-- Generated by graphviz version 2.40.1 (20161225.0304)
 -->
<!-- Title: G Pages: 1 -->
<svg width="467pt" height="2382pt"
 viewBox="0.00 0.00 466.78 2382.00" xmlns="http://www.w3.org/2000/svg" xmlns:xlink="http://www.w3.org/1999/xlink">
<g id="graph0" class="graph" transform="scale(1 1) rotate(0) translate(4 2378)">
<title>G</title>
<polygon fill="#ffffff" stroke="transparent" points="-4,4 -4,-2378 462.7832,-2378 462.7832,4 -4,4"/>
<g id="clust1" class="cluster">
<title>cluster_Global</title>
<path fill="none" stroke="#c0c0c0" d="M249.7832,-8C249.7832,-8 438.7832,-8 438.7832,-8 444.7832,-8 450.7832,-14 450.7832,-20 450.7832,-20 450.7832,-2354 450.7832,-2354 450.7832,-2360 444.7832,-2366 438.7832,-2366 438.7832,-2366 249.7832,-2366 249.7832,-2366 243.7832,-2366 237.7832,-2360 237.7832,-2354 237.7832,-2354 237.7832,-20 237.7832,-20 237.7832,-14 243.7832,-8 249.7832,-8"/>
<text text-anchor="middle" x="344.2832" y="-2353.2" font-family="Times,serif" font-size="11.00" fill="#c0c0c0">Global</text>
</g>
<g id="clust2" class="cluster">
<title>cluster_\Jcupitt</title>
<path fill="none" stroke="#c0c0c0" d="M257.7832,-16C257.7832,-16 430.7832,-16 430.7832,-16 436.7832,-16 442.7832,-22 442.7832,-28 442.7832,-28 442.7832,-2326 442.7832,-2326 442.7832,-2332 436.7832,-2338 430.7832,-2338 430.7832,-2338 257.7832,-2338 257.7832,-2338 251.7832,-2338 245.7832,-2332 245.7832,-2326 245.7832,-2326 245.7832,-28 245.7832,-28 245.7832,-22 251.7832,-16 257.7832,-16"/>
<text text-anchor="middle" x="344.2832" y="-2325.2" font-family="Times,serif" font-size="11.00" fill="#c0c0c0">Jcupitt</text>
</g>
<g id="clust3" class="cluster">
<title>cluster_\Jcupitt\Vips</title>
<path fill="none" stroke="#c0c0c0" d="M265.7832,-24C265.7832,-24 422.7832,-24 422.7832,-24 428.7832,-24 434.7832,-30 434.7832,-36 434.7832,-36 434.7832,-2298 434.7832,-2298 434.7832,-2304 428.7832,-2310 422.7832,-2310 422.7832,-2310 265.7832,-2310 265.7832,-2310 259.7832,-2310 253.7832,-2304 253.7832,-2298 253.7832,-2298 253.7832,-36 253.7832,-36 253.7832,-30 259.7832,-24 265.7832,-24"/>
<text text-anchor="middle" x="344.2832" y="-2297.2" font-family="Times,serif" font-size="11.00" fill="#c0c0c0">Vips</text>
</g>
<!-- \\Jcupitt\\Vips\\ForeignTiffCompression -->
<g id="node1" class="node">
<title>\\Jcupitt\\Vips\\ForeignTiffCompression</title>
<polygon fill="none" stroke="#000000" points="426.7832,-2282 261.7832,-2282 261.7832,-2246 426.7832,-2246 426.7832,-2282"/>
<text text-anchor="start" x="310.2832" y="-2267.2" font-family="Courier,monospace" font-size="11.00" fill="#000000">«abstract»</text>
<text text-anchor="start" x="269.7832" y="-2255.2" font-family="Courier,monospace" font-size="11.00" fill="#000000">ForeignTiffCompression</text>
</g>
<!-- \\Jcupitt\\Vips\\Precision -->
<g id="node2" class="node">
<title>\\Jcupitt\\Vips\\Precision</title>
<polygon fill="none" stroke="#000000" points="386.2832,-2228 302.2832,-2228 302.2832,-2192 386.2832,-2192 386.2832,-2228"/>
<text text-anchor="start" x="310.2832" y="-2213.2" font-family="Courier,monospace" font-size="11.00" fill="#000000">«abstract»</text>
<text text-anchor="start" x="313.7832" y="-2201.2" font-family="Courier,monospace" font-size="11.00" fill="#000000">Precision</text>
</g>
<!-- \\Jcupitt\\Vips\\Kernel -->
<g id="node3" class="node">
<title>\\Jcupitt\\Vips\\Kernel</title>
<polygon fill="none" stroke="#000000" points="386.2832,-2174 302.2832,-2174 302.2832,-2138 386.2832,-2138 386.2832,-2174"/>
<text text-anchor="start" x="310.2832" y="-2159.2" font-family="Courier,monospace" font-size="11.00" fill="#000000">«abstract»</text>
<text text-anchor="start" x="323.7832" y="-2147.2" font-family="Courier,monospace" font-size="11.00" fill="#000000">Kernel</text>
</g>
<!-- \\Jcupitt\\Vips\\Token -->
<g id="node4" class="node">
<title>\\Jcupitt\\Vips\\Token</title>
<polygon fill="none" stroke="#000000" points="386.2832,-2120 302.2832,-2120 302.2832,-2084 386.2832,-2084 386.2832,-2120"/>
<text text-anchor="start" x="310.2832" y="-2105.2" font-family="Courier,monospace" font-size="11.00" fill="#000000">«abstract»</text>
<text text-anchor="start" x="327.2832" y="-2093.2" font-family="Courier,monospace" font-size="11.00" fill="#000000">Token</text>
</g>
<!-- \\Jcupitt\\Vips\\OperationComplex -->
<g id="node5" class="node">
<title>\\Jcupitt\\Vips\\OperationComplex</title>
<polygon fill="none" stroke="#000000" points="406.7832,-2066 281.7832,-2066 281.7832,-2030 406.7832,-2030 406.7832,-2066"/>
<text text-anchor="start" x="310.2832" y="-2051.2" font-family="Courier,monospace" font-size="11.00" fill="#000000">«abstract»</text>
<text text-anchor="start" x="289.7832" y="-2039.2" font-family="Courier,monospace" font-size="11.00" fill="#000000">OperationComplex</text>
</g>
<!-- \\Jcupitt\\Vips\\ImageAutodoc -->
<g id="node6" class="node">
<title>\\Jcupitt\\Vips\\ImageAutodoc</title>
<polygon fill="none" stroke="#000000" points="393.2832,-2012 295.2832,-2012 295.2832,-1976 393.2832,-1976 393.2832,-2012"/>
<text text-anchor="start" x="310.2832" y="-1997.2" font-family="Courier,monospace" font-size="11.00" fill="#000000">«abstract»</text>
<text text-anchor="start" x="303.2832" y="-1985.2" font-family="Courier,monospace" font-size="11.00" fill="#000000">ImageAutodoc</text>
</g>
<!-- \\Jcupitt\\Vips\\Angle45 -->
<g id="node7" class="node">
<title>\\Jcupitt\\Vips\\Angle45</title>
<polygon fill="none" stroke="#000000" points="386.2832,-1958 302.2832,-1958 302.2832,-1922 386.2832,-1922 386.2832,-1958"/>
<text text-anchor="start" x="310.2832" y="-1943.2" font-family="Courier,monospace" font-size="11.00" fill="#000000">«abstract»</text>
<text text-anchor="start" x="320.2832" y="-1931.2" font-family="Courier,monospace" font-size="11.00" fill="#000000">Angle45</text>
</g>
<!-- \\Jcupitt\\Vips\\Intent -->
<g id="node8" class="node">
<title>\\Jcupitt\\Vips\\Intent</title>
<polygon fill="none" stroke="#000000" points="386.2832,-1904 302.2832,-1904 302.2832,-1868 386.2832,-1868 386.2832,-1904"/>
<text text-anchor="start" x="310.2832" y="-1889.2" font-family="Courier,monospace" font-size="11.00" fill="#000000">«abstract»</text>
<text text-anchor="start" x="323.7832" y="-1877.2" font-family="Courier,monospace" font-size="11.00" fill="#000000">Intent</text>
</g>
<!-- \\Jcupitt\\Vips\\Align -->
<g id="node9" class="node">
<title>\\Jcupitt\\Vips\\Align</title>
<polygon fill="none" stroke="#000000" points="386.2832,-1850 302.2832,-1850 302.2832,-1814 386.2832,-1814 386.2832,-1850"/>
<text text-anchor="start" x="310.2832" y="-1835.2" font-family="Courier,monospace" font-size="11.00" fill="#000000">«abstract»</text>
<text text-anchor="start" x="327.2832" y="-1823.2" font-family="Courier,monospace" font-size="11.00" fill="#000000">Align</text>
</g>
<!-- \\Jcupitt\\Vips\\OperationComplexget -->
<g id="node10" class="node">
<title>\\Jcupitt\\Vips\\OperationComplexget</title>
<polygon fill="none" stroke="#000000" points="416.7832,-1796 271.7832,-1796 271.7832,-1760 416.7832,-1760 416.7832,-1796"/>
<text text-anchor="start" x="310.2832" y="-1781.2" font-family="Courier,monospace" font-size="11.00" fill="#000000">«abstract»</text>
<text text-anchor="start" x="279.7832" y="-1769.2" font-family="Courier,monospace" font-size="11.00" fill="#000000">OperationComplexget</text>
</g>
<!-- \\Jcupitt\\Vips\\CombineMode -->
<g id="node11" class="node">
<title>\\Jcupitt\\Vips\\CombineMode</title>
<polygon fill="none" stroke="#000000" points="389.7832,-1742 298.7832,-1742 298.7832,-1706 389.7832,-1706 389.7832,-1742"/>
<text text-anchor="start" x="310.2832" y="-1727.2" font-family="Courier,monospace" font-size="11.00" fill="#000000">«abstract»</text>
<text text-anchor="start" x="306.7832" y="-1715.2" font-family="Courier,monospace" font-size="11.00" fill="#000000">CombineMode</text>
</g>
<!-- \\Jcupitt\\Vips\\OperationComplex2 -->
<g id="node12" class="node">
<title>\\Jcupitt\\Vips\\OperationComplex2</title>
<polygon fill="none" stroke="#000000" points="409.7832,-1688 278.7832,-1688 278.7832,-1652 409.7832,-1652 409.7832,-1688"/>
<text text-anchor="start" x="310.2832" y="-1673.2" font-family="Courier,monospace" font-size="11.00" fill="#000000">«abstract»</text>
<text text-anchor="start" x="286.7832" y="-1661.2" font-family="Courier,monospace" font-size="11.00" fill="#000000">OperationComplex2</text>
</g>
<!-- \\Jcupitt\\Vips\\OperationMorphology -->
<g id="node13" class="node">
<title>\\Jcupitt\\Vips\\OperationMorphology</title>
<polygon fill="none" stroke="#000000" points="416.7832,-1634 271.7832,-1634 271.7832,-1598 416.7832,-1598 416.7832,-1634"/>
<text text-anchor="start" x="310.2832" y="-1619.2" font-family="Courier,monospace" font-size="11.00" fill="#000000">«abstract»</text>
<text text-anchor="start" x="279.7832" y="-1607.2" font-family="Courier,monospace" font-size="11.00" fill="#000000">OperationMorphology</text>
</g>
<!-- \\Jcupitt\\Vips\\RegionShrink -->
<g id="node14" class="node">
<title>\\Jcupitt\\Vips\\RegionShrink</title>
<polygon fill="none" stroke="#000000" points="393.2832,-1580 295.2832,-1580 295.2832,-1544 393.2832,-1544 393.2832,-1580"/>
<text text-anchor="start" x="310.2832" y="-1565.2" font-family="Courier,monospace" font-size="11.00" fill="#000000">«abstract»</text>
<text text-anchor="start" x="303.2832" y="-1553.2" font-family="Courier,monospace" font-size="11.00" fill="#000000">RegionShrink</text>
</g>
<!-- \\Jcupitt\\Vips\\ForeignTiffPredictor -->
<g id="node15" class="node">
<title>\\Jcupitt\\Vips\\ForeignTiffPredictor</title>
<polygon fill="none" stroke="#000000" points="420.2832,-1526 268.2832,-1526 268.2832,-1490 420.2832,-1490 420.2832,-1526"/>
<text text-anchor="start" x="310.2832" y="-1511.2" font-family="Courier,monospace" font-size="11.00" fill="#000000">«abstract»</text>
<text text-anchor="start" x="276.2832" y="-1499.2" font-family="Courier,monospace" font-size="11.00" fill="#000000">ForeignTiffPredictor</text>
</g>
<!-- \\Jcupitt\\Vips\\Coding -->
<g id="node16" class="node">
<title>\\Jcupitt\\Vips\\Coding</title>
<polygon fill="none" stroke="#000000" points="386.2832,-1472 302.2832,-1472 302.2832,-1436 386.2832,-1436 386.2832,-1472"/>
<text text-anchor="start" x="310.2832" y="-1457.2" font-family="Courier,monospace" font-size="11.00" fill="#000000">«abstract»</text>
<text text-anchor="start" x="323.7832" y="-1445.2" font-family="Courier,monospace" font-size="11.00" fill="#000000">Coding</text>
</g>
<!-- \\Jcupitt\\Vips\\OperationMath2 -->
<g id="node17" class="node">
<title>\\Jcupitt\\Vips\\OperationMath2</title>
<polygon fill="none" stroke="#000000" points="399.7832,-1418 288.7832,-1418 288.7832,-1382 399.7832,-1382 399.7832,-1418"/>
<text text-anchor="start" x="310.2832" y="-1403.2" font-family="Courier,monospace" font-size="11.00" fill="#000000">«abstract»</text>
<text text-anchor="start" x="296.7832" y="-1391.2" font-family="Courier,monospace" font-size="11.00" fill="#000000">OperationMath2</text>
</g>
<!-- \\Jcupitt\\Vips\\Angle -->
<g id="node18" class="node">
<title>\\Jcupitt\\Vips\\Angle</title>
<polygon fill="none" stroke="#000000" points="386.2832,-1364 302.2832,-1364 302.2832,-1328 386.2832,-1328 386.2832,-1364"/>
<text text-anchor="start" x="310.2832" y="-1349.2" font-family="Courier,monospace" font-size="11.00" fill="#000000">«abstract»</text>
<text text-anchor="start" x="327.2832" y="-1337.2" font-family="Courier,monospace" font-size="11.00" fill="#000000">Angle</text>
</g>
<!-- \\Jcupitt\\Vips\\ImageType -->
<g id="node19" class="node">
<title>\\Jcupitt\\Vips\\ImageType</title>
<polygon fill="none" stroke="#000000" points="386.2832,-1310 302.2832,-1310 302.2832,-1274 386.2832,-1274 386.2832,-1310"/>
<text text-anchor="start" x="310.2832" y="-1295.2" font-family="Courier,monospace" font-size="11.00" fill="#000000">«abstract»</text>
<text text-anchor="start" x="313.7832" y="-1283.2" font-family="Courier,monospace" font-size="11.00" fill="#000000">ImageType</text>
</g>
<!-- \\Jcupitt\\Vips\\DemandStyle -->
<g id="node20" class="node">
<title>\\Jcupitt\\Vips\\DemandStyle</title>
<polygon fill="none" stroke="#000000" points="389.7832,-1256 298.7832,-1256 298.7832,-1220 389.7832,-1220 389.7832,-1256"/>
<text text-anchor="start" x="310.2832" y="-1241.2" font-family="Courier,monospace" font-size="11.00" fill="#000000">«abstract»</text>
<text text-anchor="start" x="306.7832" y="-1229.2" font-family="Courier,monospace" font-size="11.00" fill="#000000">DemandStyle</text>
</g>
<!-- \\Jcupitt\\Vips\\Saveable -->
<g id="node21" class="node">
<title>\\Jcupitt\\Vips\\Saveable</title>
<polygon fill="none" stroke="#000000" points="386.2832,-1202 302.2832,-1202 302.2832,-1166 386.2832,-1166 386.2832,-1202"/>
<text text-anchor="start" x="310.2832" y="-1187.2" font-family="Courier,monospace" font-size="11.00" fill="#000000">«abstract»</text>
<text text-anchor="start" x="316.7832" y="-1175.2" font-family="Courier,monospace" font-size="11.00" fill="#000000">Saveable</text>
</g>
<!-- \\Jcupitt\\Vips\\ForeignDzContainer -->
<g id="node22" class="node">
<title>\\Jcupitt\\Vips\\ForeignDzContainer</title>
<polygon fill="none" stroke="#000000" points="413.2832,-1148 275.2832,-1148 275.2832,-1112 413.2832,-1112 413.2832,-1148"/>
<text text-anchor="start" x="310.2832" y="-1133.2" font-family="Courier,monospace" font-size="11.00" fill="#000000">«abstract»</text>
<text text-anchor="start" x="283.2832" y="-1121.2" font-family="Courier,monospace" font-size="11.00" fill="#000000">ForeignDzContainer</text>
</g>
<!-- \\Jcupitt\\Vips\\Extend -->
<g id="node23" class="node">
<title>\\Jcupitt\\Vips\\Extend</title>
<polygon fill="none" stroke="#000000" points="386.2832,-1094 302.2832,-1094 302.2832,-1058 386.2832,-1058 386.2832,-1094"/>
<text text-anchor="start" x="310.2832" y="-1079.2" font-family="Courier,monospace" font-size="11.00" fill="#000000">«abstract»</text>
<text text-anchor="start" x="323.7832" y="-1067.2" font-family="Courier,monospace" font-size="11.00" fill="#000000">Extend</text>
</g>
<!-- \\Jcupitt\\Vips\\PCS -->
<g id="node24" class="node">
<title>\\Jcupitt\\Vips\\PCS</title>
<polygon fill="none" stroke="#000000" points="386.2832,-1040 302.2832,-1040 302.2832,-1004 386.2832,-1004 386.2832,-1040"/>
<text text-anchor="start" x="310.2832" y="-1025.2" font-family="Courier,monospace" font-size="11.00" fill="#000000">«abstract»</text>
<text text-anchor="start" x="333.7832" y="-1013.2" font-family="Courier,monospace" font-size="11.00" fill="#000000">PCS</text>
</g>
<!-- \\Jcupitt\\Vips\\Config -->
<g id="node25" class="node">
<title>\\Jcupitt\\Vips\\Config</title>
<polygon fill="none" stroke="#000000" points="372.7832,-986 315.7832,-986 315.7832,-950 372.7832,-950 372.7832,-986"/>
<text text-anchor="middle" x="344.2832" y="-965.2" font-family="Courier,monospace" font-size="11.00" fill="#000000">Config</text>
</g>
<!-- \\Jcupitt\\Vips\\Utils -->
<g id="node26" class="node">
<title>\\Jcupitt\\Vips\\Utils</title>
<polygon fill="none" stroke="#000000" points="371.2832,-932 317.2832,-932 317.2832,-896 371.2832,-896 371.2832,-932"/>
<text text-anchor="middle" x="344.2832" y="-911.2" font-family="Courier,monospace" font-size="11.00" fill="#000000">Utils</text>
</g>
<!-- \\Jcupitt\\Vips\\ForeignDzLayout -->
<g id="node27" class="node">
<title>\\Jcupitt\\Vips\\ForeignDzLayout</title>
<polygon fill="none" stroke="#000000" points="403.2832,-878 285.2832,-878 285.2832,-842 403.2832,-842 403.2832,-878"/>
<text text-anchor="start" x="310.2832" y="-863.2" font-family="Courier,monospace" font-size="11.00" fill="#000000">«abstract»</text>
<text text-anchor="start" x="293.2832" y="-851.2" font-family="Courier,monospace" font-size="11.00" fill="#000000">ForeignDzLayout</text>
</g>
<!-- \\Jcupitt\\Vips\\OperationRound -->
<g id="node28" class="node">
<title>\\Jcupitt\\Vips\\OperationRound</title>
<polygon fill="none" stroke="#000000" points="399.7832,-824 288.7832,-824 288.7832,-788 399.7832,-788 399.7832,-824"/>
<text text-anchor="start" x="310.2832" y="-809.2" font-family="Courier,monospace" font-size="11.00" fill="#000000">«abstract»</text>
<text text-anchor="start" x="296.7832" y="-797.2" font-family="Courier,monospace" font-size="11.00" fill="#000000">OperationRound</text>
</g>
<!-- \\Jcupitt\\Vips\\Exception -->
<g id="node29" class="node">
<title>\\Jcupitt\\Vips\\Exception</title>
<polygon fill="none" stroke="#000000" points="382.7832,-770 305.7832,-770 305.7832,-734 382.7832,-734 382.7832,-770"/>
<text text-anchor="middle" x="344.2832" y="-749.2" font-family="Courier,monospace" font-size="11.00" fill="#000000">Exception</text>
</g>
<!-- \\Exception -->
<g id="node43" class="node">
<title>\\Exception</title>
<ellipse fill="none" stroke="#000000" cx="94.8916" cy="-752" rx="40.8928" ry="18"/>
<text text-anchor="middle" x="94.8916" y="-748.3" font-family="Times,serif" font-size="14.00" fill="#c0c0c0">xception</text>
</g>
<!-- \\Jcupitt\\Vips\\Exception&#45;&gt;\\Exception -->
<g id="edge1" class="edge">
<title>\\Jcupitt\\Vips\\Exception&#45;&gt;\\Exception</title>
<path fill="none" stroke="#000000" d="M305.5894,-752C262.7619,-752 193.5448,-752 146.2155,-752"/>
<polygon fill="none" stroke="#000000" points="146.1697,-748.5001 136.1697,-752 146.1696,-755.5001 146.1697,-748.5001"/>
</g>
<!-- \\Jcupitt\\Vips\\Access -->
<g id="node30" class="node">
<title>\\Jcupitt\\Vips\\Access</title>
<polygon fill="none" stroke="#000000" points="386.2832,-716 302.2832,-716 302.2832,-680 386.2832,-680 386.2832,-716"/>
<text text-anchor="start" x="310.2832" y="-701.2" font-family="Courier,monospace" font-size="11.00" fill="#000000">«abstract»</text>
<text text-anchor="start" x="323.7832" y="-689.2" font-family="Courier,monospace" font-size="11.00" fill="#000000">Access</text>
</g>
<!-- \\Jcupitt\\Vips\\OperationMath -->
<g id="node31" class="node">
<title>\\Jcupitt\\Vips\\OperationMath</title>
<polygon fill="none" stroke="#000000" points="396.2832,-662 292.2832,-662 292.2832,-626 396.2832,-626 396.2832,-662"/>
<text text-anchor="start" x="310.2832" y="-647.2" font-family="Courier,monospace" font-size="11.00" fill="#000000">«abstract»</text>
<text text-anchor="start" x="300.2832" y="-635.2" font-family="Courier,monospace" font-size="11.00" fill="#000000">OperationMath</text>
</g>
<!-- \\Jcupitt\\Vips\\Combine -->
<g id="node32" class="node">
<title>\\Jcupitt\\Vips\\Combine</title>
<polygon fill="none" stroke="#000000" points="386.2832,-608 302.2832,-608 302.2832,-572 386.2832,-572 386.2832,-608"/>
<text text-anchor="start" x="310.2832" y="-593.2" font-family="Courier,monospace" font-size="11.00" fill="#000000">«abstract»</text>
<text text-anchor="start" x="320.2832" y="-581.2" font-family="Courier,monospace" font-size="11.00" fill="#000000">Combine</text>
</g>
<!-- \\Jcupitt\\Vips\\Direction -->
<g id="node33" class="node">
<title>\\Jcupitt\\Vips\\Direction</title>
<polygon fill="none" stroke="#000000" points="386.2832,-554 302.2832,-554 302.2832,-518 386.2832,-518 386.2832,-554"/>
<text text-anchor="start" x="310.2832" y="-539.2" font-family="Courier,monospace" font-size="11.00" fill="#000000">«abstract»</text>
<text text-anchor="start" x="313.7832" y="-527.2" font-family="Courier,monospace" font-size="11.00" fill="#000000">Direction</text>
</g>
<!-- \\Jcupitt\\Vips\\OperationRelational -->
<g id="node34" class="node">
<title>\\Jcupitt\\Vips\\OperationRelational</title>
<polygon fill="none" stroke="#000000" points="416.7832,-500 271.7832,-500 271.7832,-464 416.7832,-464 416.7832,-500"/>
<text text-anchor="start" x="310.2832" y="-485.2" font-family="Courier,monospace" font-size="11.00" fill="#000000">«abstract»</text>
<text text-anchor="start" x="279.7832" y="-473.2" font-family="Courier,monospace" font-size="11.00" fill="#000000">OperationRelational</text>
</g>
<!-- \\Jcupitt\\Vips\\BandFormat -->
<g id="node35" class="node">
<title>\\Jcupitt\\Vips\\BandFormat</title>
<polygon fill="none" stroke="#000000" points="386.2832,-446 302.2832,-446 302.2832,-410 386.2832,-410 386.2832,-446"/>
<text text-anchor="start" x="310.2832" y="-431.2" font-family="Courier,monospace" font-size="11.00" fill="#000000">«abstract»</text>
<text text-anchor="start" x="310.2832" y="-419.2" font-family="Courier,monospace" font-size="11.00" fill="#000000">BandFormat</text>
</g>
<!-- \\Jcupitt\\Vips\\Interpretation -->
<g id="node36" class="node">
<title>\\Jcupitt\\Vips\\Interpretation</title>
<polygon fill="none" stroke="#000000" points="399.7832,-392 288.7832,-392 288.7832,-356 399.7832,-356 399.7832,-392"/>
<text text-anchor="start" x="310.2832" y="-377.2" font-family="Courier,monospace" font-size="11.00" fill="#000000">«abstract»</text>
<text text-anchor="start" x="296.7832" y="-365.2" font-family="Courier,monospace" font-size="11.00" fill="#000000">Interpretation</text>
</g>
<!-- \\Jcupitt\\Vips\\CompassDirection -->
<g id="node37" class="node">
<title>\\Jcupitt\\Vips\\CompassDirection</title>
<polygon fill="none" stroke="#000000" points="406.7832,-338 281.7832,-338 281.7832,-302 406.7832,-302 406.7832,-338"/>
<text text-anchor="start" x="310.2832" y="-323.2" font-family="Courier,monospace" font-size="11.00" fill="#000000">«abstract»</text>
<text text-anchor="start" x="289.7832" y="-311.2" font-family="Courier,monospace" font-size="11.00" fill="#000000">CompassDirection</text>
</g>
<!-- \\Jcupitt\\Vips\\Interesting -->
<g id="node38" class="node">
<title>\\Jcupitt\\Vips\\Interesting</title>
<polygon fill="none" stroke="#000000" points="389.7832,-284 298.7832,-284 298.7832,-248 389.7832,-248 389.7832,-284"/>
<text text-anchor="start" x="310.2832" y="-269.2" font-family="Courier,monospace" font-size="11.00" fill="#000000">«abstract»</text>
<text text-anchor="start" x="306.7832" y="-257.2" font-family="Courier,monospace" font-size="11.00" fill="#000000">Interesting</text>
</g>
<!-- \\Jcupitt\\Vips\\ForeignTiffResunit -->
<g id="node39" class="node">
<title>\\Jcupitt\\Vips\\ForeignTiffResunit</title>
<polygon fill="none" stroke="#000000" points="413.2832,-230 275.2832,-230 275.2832,-194 413.2832,-194 413.2832,-230"/>
<text text-anchor="start" x="310.2832" y="-215.2" font-family="Courier,monospace" font-size="11.00" fill="#000000">«abstract»</text>
<text text-anchor="start" x="283.2832" y="-203.2" font-family="Courier,monospace" font-size="11.00" fill="#000000">ForeignTiffResunit</text>
</g>
<!-- \\Jcupitt\\Vips\\Size -->
<g id="node40" class="node">
<title>\\Jcupitt\\Vips\\Size</title>
<polygon fill="none" stroke="#000000" points="386.2832,-176 302.2832,-176 302.2832,-140 386.2832,-140 386.2832,-176"/>
<text text-anchor="start" x="310.2832" y="-161.2" font-family="Courier,monospace" font-size="11.00" fill="#000000">«abstract»</text>
<text text-anchor="start" x="330.2832" y="-149.2" font-family="Courier,monospace" font-size="11.00" fill="#000000">Size</text>
</g>
<!-- \\Jcupitt\\Vips\\DebugLogger -->
<g id="node41" class="node">
<title>\\Jcupitt\\Vips\\DebugLogger</title>
<polygon fill="none" stroke="#000000" points="389.7832,-122 298.7832,-122 298.7832,-86 389.7832,-86 389.7832,-122"/>
<text text-anchor="middle" x="344.2832" y="-101.2" font-family="Courier,monospace" font-size="11.00" fill="#000000">DebugLogger</text>
</g>
<!-- \\Psr\\Log\\LoggerInterface -->
<g id="node44" class="node">
<title>\\Psr\\Log\\LoggerInterface</title>
<ellipse fill="none" stroke="#000000" cx="94.8916" cy="-104" rx="94.7833" ry="18"/>
<text text-anchor="middle" x="94.8916" y="-100.3" font-family="Times,serif" font-size="14.00" fill="#c0c0c0">\PsrLogLoggerInterface</text>
</g>
<!-- \\Jcupitt\\Vips\\DebugLogger&#45;&gt;\\Psr\\Log\\LoggerInterface -->
<g id="edge2" class="edge">
<title>\\Jcupitt\\Vips\\DebugLogger&#45;&gt;\\Psr\\Log\\LoggerInterface</title>
<path fill="none" stroke="#000000" stroke-dasharray="1,5" d="M298.5409,-104C270.896,-104 234.4558,-104 200.0506,-104"/>
<polygon fill="none" stroke="#000000" points="199.9318,-100.5001 189.9318,-104 199.9317,-107.5001 199.9318,-100.5001"/>
</g>
<!-- \\Jcupitt\\Vips\\ForeignDzDepth -->
<g id="node42" class="node">
<title>\\Jcupitt\\Vips\\ForeignDzDepth</title>
<polygon fill="none" stroke="#000000" points="399.7832,-68 288.7832,-68 288.7832,-32 399.7832,-32 399.7832,-68"/>
<text text-anchor="start" x="310.2832" y="-53.2" font-family="Courier,monospace" font-size="11.00" fill="#000000">«abstract»</text>
<text text-anchor="start" x="296.7832" y="-41.2" font-family="Courier,monospace" font-size="11.00" fill="#000000">ForeignDzDepth</text>
</g>
</g>
</svg>
